<?xml version="1.0" encoding="utf-8"?>
<!-- Generator: Adobe Illustrator 19.1.0, SVG Export Plug-In . SVG Version: 6.00 Build 0)  -->
<svg version="1.1" id="Capa_1" xmlns="http://www.w3.org/2000/svg" xmlns:xlink="http://www.w3.org/1999/xlink" x="0px" y="0px"
	 width="49.7px" height="49.7px" viewBox="-124 126.3 49.7 49.7" style="enable-background:new -124 126.3 49.7 49.7;"
	 xml:space="preserve">
<style type="text/css">
	.st0{fill:#517FA6;}
</style>
<g>
	<g>
		<g>
			<path class="st0" d="M-99.2,156.1c2.7,0,5-2.2,5-5c0-1.1-0.4-2.1-0.9-2.9c-0.9-1.3-2.4-2.1-4-2.1c-1.7,0-3.1,0.8-4,2.1
				c-0.6,0.8-0.9,1.8-0.9,2.9C-104.1,153.9-101.9,156.1-99.2,156.1z"/>
			<polygon class="st0" points="-88.3,145.1 -88.3,140.9 -88.3,140.3 -88.9,140.3 -93.1,140.3 -93.1,145.1 			"/>
			<path class="st0" d="M-99.2,126.3c-13.7,0-24.8,11.1-24.8,24.8c0,13.7,11.1,24.8,24.8,24.8c13.7,0,24.8-11.1,24.8-24.8
				C-74.3,137.5-85.5,126.3-99.2,126.3z M-85.1,148.3v11.6c0,3-2.4,5.5-5.5,5.5h-17.3c-3,0-5.5-2.4-5.5-5.5v-11.6v-5.8
				c0-3,2.4-5.5,5.5-5.5h17.3c3,0,5.5,2.4,5.5,5.5V148.3z"/>
			<path class="st0" d="M-91.5,151.2c0,4.3-3.5,7.7-7.7,7.7c-4.3,0-7.7-3.5-7.7-7.7c0-1,0.2-2,0.6-2.9h-4.2v11.6
				c0,1.5,1.2,2.7,2.7,2.7h17.3c1.5,0,2.7-1.2,2.7-2.7v-11.6H-92C-91.7,149.2-91.5,150.1-91.5,151.2z"/>
		</g>
	</g>
</g>
</svg>
