
<!-- Generator: Adobe Illustrator 15.0.0, SVG Export Plug-In . SVG Version: 6.00 Build 0)  --> 
<!DOCTYPE svg PUBLIC "-//W3C//DTD SVG 1.1//EN" "http://www.w3.org/Graphics/SVG/1.1/DTD/svg11.dtd"> 
<svg version="1.1"  xmlns="http://www.w3.org/2000/svg" xmlns:xlink="http://www.w3.org/1999/xlink" x="0px" y="0px"
	 width="64px" height="64px" viewBox="0 0 64 64" enable-background="new 0 0 64 64" xml:space="preserve">
<path fill="#2CAAE1" d="M32,0C14.327,0,0,14.327,0,32c0,17.678,14.327,32,32,32s32-14.322,32-32C64,14.327,49.673,0,32,0z
	 M44.725,25.477c0.014,0.282,0.021,0.561,0.021,0.846c0,8.676-6.603,18.679-18.68,18.679c-3.708,0-7.159-1.084-10.062-2.949
	c0.517,0.057,1.04,0.092,1.567,0.092c3.078,0,5.905-1.047,8.151-2.81c-2.871-0.053-5.296-1.956-6.128-4.556
	c0.397,0.07,0.808,0.118,1.232,0.118c0.602,0,1.18-0.085,1.729-0.232c-3-0.604-5.266-3.257-5.266-6.435c0-0.027,0-0.054,0-0.083
	c0.887,0.493,1.898,0.787,2.974,0.821c-1.761-1.176-2.92-3.189-2.92-5.465c0-1.203,0.324-2.333,0.889-3.3
	c3.236,3.972,8.075,6.585,13.53,6.861c-0.11-0.481-0.168-0.98-0.168-1.496c0-3.626,2.939-6.564,6.566-6.564
	c1.885,0,3.598,0.798,4.791,2.072c1.495-0.292,2.901-0.838,4.171-1.593c-0.491,1.536-1.531,2.821-2.887,3.631
	c1.33-0.156,2.595-0.511,3.773-1.031C47.124,23.394,46.009,24.552,44.725,25.477z"/>
</svg> 