<!-- Generator: Adobe Illustrator 15.0.0, SVG Export Plug-In . SVG Version: 6.00 Build 0)  -->
<!DOCTYPE svg PUBLIC "-//W3C//DTD SVG 1.1//EN" "http://www.w3.org/Graphics/SVG/1.1/DTD/svg11.dtd">
<svg version="1.1" id="Layer_1" xmlns="http://www.w3.org/2000/svg" xmlns:xlink="http://www.w3.org/1999/xlink" x="0px" y="0px" width="142px" height="44px" viewBox="0 0 284 87.25" enable-background="new 0 0 284 87.25" xml:space="preserve">
<g>
	<path fill="#474747" d="M90.455,27.413l1.489,24.063c0.185,2.4,2.214,2.588,3.026,2.64l7.626-18.434   c0.745-1.875,1.388-4.379,1.742-8.352h10.469c0.846,4.464-0.641,9.114-1.979,12.175l-10.332,23.812   C94.8,80.768,84.3,82.525,79.581,83.301v-7.793c6.239-3.127,9.301-7.223,11.802-12.174c-6.358,0-9.588-3.521-10.146-9.775   l-2.282-26.146H90.455z"/>
	<path fill="#474747" d="M134.938,27.024c12.259,0,15.841,6.351,13.646,20.199c-2.125,13.314-6.587,16.5-19.222,16.5   c-12.38,0-15.944-6.195-13.919-19.029C117.744,30.031,122.674,27.024,134.938,27.024 M130.544,55.182   c4.561,0,5.539-0.643,6.958-9.224c1.403-8.716,0.948-10.386-3.869-10.386c-4.881,0-5.672,1.503-7.107,10.386   C125.175,54.182,126.221,55.182,130.544,55.182"/>
	<path fill="#474747" d="M150.719,54.943c0.139-1.014,0.814-1.688,1.895-1.688h6.757c1.017,0,1.42,0.743,1.284,1.688l-1.114,6.892   c-0.138,1.015-0.813,1.556-1.761,1.556h-6.754c-0.944,0-1.557-0.606-1.418-1.556L150.719,54.943z M156.803,14.001h10.824   l-6.855,36.076h-8.666L156.803,14.001z"/>
	<path fill="#474747" d="M202.193,27.515h-11.687c-1.891,6.08-6.94,10.539-11.924,12.5l4.123-25.875H171.63l-7.812,49.25h11.08   l2.554-15.813l2.565-0.064l7.854,15.881h12.159l-10.028-19.462C193.988,41.706,199.596,36.974,202.193,27.515"/>
	<path fill="#474747" d="M218.643,26.836c5.338-0.151,13.156,0.881,16.603,4.19l-4.729,32.26h-8.646l-1.703-3.546   c-1.711,2.55-6.254,4.018-10.239,4.018c-6.74,0-11.925-6.617-9.068-20.875C203.846,27.974,211.984,27.007,218.643,26.836    M214.637,54.656c3.43,0,5.219-1.285,6.521-3.445l2.244-15.319c-1.416-0.624-3.885-0.862-5.59-0.472   c-2.568,0.556-4.998,1.503-6.133,9.139C210.803,50.436,210.789,54.656,214.637,54.656"/>
	<path fill="#474747" d="M239.678,27.515h9.592l0.744,4.527c2.301-2.416,5.908-4.882,9.982-4.882c1.4,0,2.619,0.034,3.563,0.389   l-1.672,10.658c-1.012-0.052-3.178-0.104-5.236-0.104c-3.377,0-6.299,0.357-8.209,4.021l-3.358,21.269H234L239.678,27.515z"/>
	<path fill="#474747" d="M267.047,17.449h11.252l-1.602,9.998h7.127l-1.27,8.039h-7.125l-2.078,13.059   c-0.813,5.271,0.086,6.098,1.756,6.855c0,0,3.227,1.369,3.602,1.369l-1.055,6.67h-7.223c-5.693,0-9.92-3.53-8.465-12.871   L267.047,17.449z"/>
	<path fill="#FF3A59" d="M77.53,0.296c-4.346-1.333-10.712,1.97-13.357,6.921c-2.038,3.809-3.622,7.063-4.893,9.675   c-2.548,5.23-4.087,8.388-6.259,9.977c-2.865,2.105-7.029,0.825-12.797-0.951l-31.555-9.67c-2.906-0.889-5.998,0.76-6.889,3.658   c-0.89,2.906,0.75,5.989,3.656,6.883l13.772,4.224l14.601,4.477l3.189,0.977l-0.014,0.04c3.346,1.461,5.148,5.246,4.049,8.821   c-0.805,2.646-2.986,4.492-5.519,5.006c1.806,1.848,2.582,4.596,1.772,7.238c-1.096,3.57-4.709,5.699-8.302,5.025l-0.011,0.038   l-0.713-0.211c-0.025-0.004-0.055-0.021-0.084-0.024l-2.025-0.615l-14.976-4.592l-6.113-1.883   c-2.063-0.637-4.262,0.532-4.888,2.601c-0.636,2.063,0.528,4.252,2.592,4.886l29.074,8.904   c11.674,3.586,19.905-3.521,22.881-12.163c1.858-5.38,15.513-42.374,20.076-49.541c1.35-2.109,2.581-3.024,3.569-3.758   c0.921-0.673,1.466-1.082,1.805-2.214C80.387,3.306,80.151,1.093,77.53,0.296"/>
	<path fill="#FF3A59" d="M12.668,75.645c-0.953,3.101-4.232,4.849-7.323,3.896c-3.104-0.955-4.844-4.24-3.897-7.34   c0.949-3.093,4.232-4.83,7.331-3.877C11.877,69.264,13.624,72.549,12.668,75.645"/>
	<path fill="#FF3A59" d="M36.979,83.1c-0.683,2.25-2.605,3.775-4.788,4.092c-0.829,0.121-1.69,0.06-2.548-0.2   c-3.089-0.947-4.833-4.229-3.885-7.328c0.949-3.104,4.228-4.849,7.333-3.896C36.191,76.719,37.932,80.004,36.979,83.1"/>
	<path fill="#FF3A59" d="M29.837,59.898c-0.476,0-0.945-0.068-1.4-0.209l-2.266-0.748l-0.788-0.188l-14.936-4.582   c-1.236-0.378-2.25-1.215-2.854-2.354c-0.605-1.145-0.731-2.449-0.353-3.687c0.616-2.016,2.524-3.425,4.634-3.422   c0.475-0.003,0.953,0.069,1.408,0.206l16.123,4.949l-0.011,0.033l1.794,0.516l0.046,0.025l0.044,0.006   c2.541,0.781,3.966,3.486,3.186,6.033C33.843,58.495,31.944,59.898,29.837,59.898"/>
	<path fill="#FF3A59" d="M33.409,47.875c-0.46,0-0.925-0.068-1.374-0.206l-2.137-0.692l-0.711-0.185l-14.773-4.52   c-2.5-0.767-3.905-3.426-3.142-5.916c0.604-1.978,2.467-3.354,4.535-3.354c0.464-0.002,0.93,0.07,1.379,0.209l15.851,4.856   l-0.002,0.02l1.77,0.528c2.494,0.772,3.896,3.423,3.135,5.916C37.334,46.503,35.472,47.875,33.409,47.875"/>
	<g enable-background="new    ">
		<path fill="#414042" d="M120.962,77.452c-0.048-1.291-0.096-2.854-0.096-4.417h-0.032c-0.351,1.372-0.797,2.902-1.212,4.162    l-1.308,4.193h-1.897l-1.148-4.146c-0.351-1.275-0.702-2.807-0.973-4.21h-0.032c-0.048,1.451-0.112,3.109-0.175,4.449    l-0.208,4.082h-2.249l0.686-10.747h3.237l1.052,3.588c0.351,1.243,0.67,2.583,0.909,3.843h0.063    c0.287-1.244,0.654-2.663,1.021-3.859l1.132-3.571h3.189l0.574,10.747h-2.36L120.962,77.452z"/>
		<path fill="#414042" d="M127.788,70.819v6.171c0,1.865,0.718,2.807,1.945,2.807c1.276,0,1.978-0.894,1.978-2.807v-6.171h2.423    v6.027c0,3.316-1.674,4.896-4.48,4.896c-2.711,0-4.29-1.516-4.29-4.928v-5.995H127.788z"/>
	</g>
	<g enable-background="new    ">
		<path fill="#414042" d="M136.256,70.819h2.424v8.706h4.273v2.041h-6.697V70.819z"/>
	</g>
	<g enable-background="new    ">
		<path fill="#414042" d="M144.834,72.86h-2.901v-2.041h8.26v2.041h-2.935v8.706h-2.424V72.86z"/>
		<path fill="#414042" d="M153.924,70.819v10.747H151.5V70.819H153.924z"/>
	</g>
	<g enable-background="new    ">
	</g>
	<g enable-background="new    ">
		<path fill="#414042" d="M161.211,81.566l-3.444-10.747h2.663l1.307,4.544c0.367,1.292,0.702,2.504,0.957,3.843h0.049    c0.271-1.291,0.605-2.566,0.973-3.795l1.371-4.592h2.582l-3.619,10.747H161.211z"/>
		<path fill="#414042" d="M175.211,77.021h-3.954v2.552h4.417v1.993h-6.841V70.819h6.617v1.993h-4.193v2.232h3.954V77.021z"/>
		<path fill="#414042" d="M177.332,81.566V70.819h2.839l2.232,3.938c0.638,1.132,1.26,2.472,1.754,3.684h0.032    c-0.144-1.42-0.191-2.87-0.191-4.497v-3.125h2.232v10.747h-2.552l-2.296-4.146c-0.638-1.148-1.355-2.535-1.865-3.795h-0.064    c0.08,1.435,0.111,2.949,0.111,4.703v3.237H177.332z"/>
		<path fill="#414042" d="M188.336,70.979c0.893-0.144,2.057-0.239,3.269-0.239c2.057,0,3.396,0.383,4.417,1.148    c1.116,0.829,1.817,2.152,1.817,4.05c0,2.057-0.749,3.477-1.77,4.354c-1.132,0.94-2.87,1.387-4.976,1.387    c-1.26,0-2.168-0.079-2.758-0.159V70.979z M190.76,79.732c0.207,0.048,0.558,0.048,0.845,0.048    c2.216,0.017,3.667-1.195,3.667-3.763c0-2.232-1.307-3.412-3.412-3.412c-0.525,0-0.893,0.048-1.1,0.096V79.732z"/>
		<path fill="#414042" d="M209.272,76.081c0,3.54-2.12,5.661-5.278,5.661c-3.173,0-5.055-2.408-5.055-5.485    c0-3.222,2.073-5.629,5.23-5.629C207.471,70.628,209.272,73.1,209.272,76.081z M201.508,76.209c0,2.12,0.988,3.604,2.614,3.604    c1.643,0,2.583-1.563,2.583-3.651c0-1.945-0.908-3.604-2.583-3.604C202.464,72.558,201.508,74.12,201.508,76.209z"/>
		<path fill="#414042" d="M210.867,70.963c0.781-0.128,1.93-0.224,3.238-0.224c1.594,0,2.71,0.239,3.476,0.846    c0.653,0.51,1.005,1.275,1.005,2.264c0,1.355-0.973,2.296-1.898,2.631v0.048c0.75,0.304,1.164,1.005,1.436,1.993    c0.335,1.229,0.654,2.631,0.861,3.046h-2.488c-0.159-0.319-0.43-1.18-0.732-2.504c-0.304-1.354-0.766-1.706-1.771-1.722h-0.718    v4.226h-2.408V70.963z M213.275,75.587h0.957c1.212,0,1.93-0.606,1.93-1.547c0-0.973-0.67-1.482-1.786-1.482    c-0.591,0-0.925,0.031-1.101,0.079V75.587z"/>
		<path fill="#414042" d="M223.625,79.063c0.638,0.335,1.658,0.67,2.694,0.67c1.116,0,1.706-0.462,1.706-1.164    c0-0.669-0.51-1.052-1.801-1.499c-1.787-0.638-2.967-1.626-2.967-3.188c0-1.834,1.547-3.221,4.066-3.221    c1.228,0,2.104,0.238,2.742,0.542l-0.542,1.945c-0.415-0.208-1.196-0.511-2.231-0.511c-1.053,0-1.563,0.494-1.563,1.037    c0,0.686,0.59,0.988,1.993,1.515c1.897,0.701,2.774,1.69,2.774,3.205c0,1.802-1.371,3.332-4.321,3.332    c-1.228,0-2.439-0.335-3.045-0.669L223.625,79.063z"/>
	</g>
	<g enable-background="new    ">
		<path fill="#414042" d="M234.644,81.566v-4.401l-3.396-6.346h2.79l1.084,2.583c0.336,0.781,0.574,1.355,0.83,2.057h0.031    c0.24-0.669,0.494-1.291,0.813-2.057l1.085-2.583h2.727l-3.541,6.267v4.48H234.644z"/>
	</g>
	<g enable-background="new    ">
		<path fill="#414042" d="M241.391,79.063c0.637,0.335,1.658,0.67,2.694,0.67c1.116,0,1.706-0.462,1.706-1.164    c0-0.669-0.51-1.052-1.802-1.499c-1.786-0.638-2.966-1.626-2.966-3.188c0-1.834,1.547-3.221,4.066-3.221    c1.227,0,2.104,0.238,2.742,0.542l-0.543,1.945c-0.414-0.208-1.195-0.511-2.231-0.511c-1.053,0-1.563,0.494-1.563,1.037    c0,0.686,0.591,0.988,1.994,1.515c1.896,0.701,2.773,1.69,2.773,3.205c0,1.802-1.371,3.332-4.32,3.332    c-1.229,0-2.439-0.335-3.046-0.669L241.391,79.063z"/>
		<path fill="#414042" d="M252.01,72.86h-2.902v-2.041h8.26v2.041h-2.934v8.706h-2.424V72.86z"/>
		<path fill="#414042" d="M265.054,77.021H261.1v2.552h4.417v1.993h-6.841V70.819h6.617v1.993H261.1v2.232h3.954V77.021z"/>
		<path fill="#414042" d="M276.264,77.452c-0.048-1.291-0.096-2.854-0.096-4.417h-0.031c-0.352,1.372-0.798,2.902-1.213,4.162    l-1.307,4.193h-1.898l-1.147-4.146c-0.351-1.275-0.702-2.807-0.973-4.21h-0.032c-0.047,1.451-0.111,3.109-0.175,4.449    l-0.208,4.082h-2.248l0.686-10.747h3.237l1.052,3.588c0.352,1.243,0.67,2.583,0.91,3.843h0.063    c0.287-1.244,0.654-2.663,1.021-3.859l1.132-3.571h3.188l0.574,10.747h-2.359L276.264,77.452z"/>
	</g>
</g>
</svg>