 <svg version="1.1"  xmlns="http://www.w3.org/2000/svg" xmlns:xlink="http://www.w3.org/1999/xlink" x="0px" y="0px"
	 width="70px" height="70px" viewBox="0 0 70 70" enable-background="new 0 0 70 70" xml:space="preserve">
<path fill="#474747" d="M70.1,11.7h-7l-7,21H25.7l-7-23.3c0,0-2.8-9.2-7-9.3h-7c0,0-5.5,1.9-4.7,4.7c0,0,0.3,6.7,9.3,2.3l11.7,35
	h39.6L70.1,11.7z"/>
<path fill="#474747" d="M29.2,46.3c3.2,0,5.8,2.6,5.8,5.8s-2.6,5.8-5.8,5.8s-5.8-2.6-5.8-5.8C23.4,49,26,46.3,29.2,46.3z"/>
<path fill="#474747" d="M52.4,46.3c3.2,0,5.8,2.6,5.8,5.8s-2.6,5.8-5.8,5.8s-5.8-2.6-5.8-5.8C46.5,49,49.2,46.3,52.4,46.3z"/>
<rect x="24.4" y="10.5" fill="#474747" width="28" height="7"/>
<rect x="34.9" y="0" fill="#474747" width="7" height="28"/>
</svg> 