

<svg version="1.1"  xmlns="http://www.w3.org/2000/svg" xmlns:xlink="http://www.w3.org/1999/xlink" x="0px" y="0px"
	 width="70px" height="70px" viewBox="0 0 70 70" enable-background="new 0 0 70 70" xml:space="preserve">
<g>
	<path fill="#474747" d="M35,0C15.6,0,0,15.6,0,35s15.6,35,35,35s35-15.6,35-35C69.9,15.6,54.2,0,35,0L35,0z M35,65.5
		C18,65.5,4.4,51.8,4.4,35S18,4.4,35,4.4C51.8,4.4,65.6,18,65.6,35C65.5,51.8,51.8,65.5,35,65.5L35,65.5z M48,32.8h-11v-11
		c0-1.2-1-2.2-2.2-2.2c-1.2,0-2.2,1-2.2,2.2v11h-11c-1.2,0-2.2,1-2.2,2.2s1,2.2,2.2,2.2h11v11c0,1.2,1,2.2,2.2,2.2
		c1.2,0,2.2-1,2.2-2.2v-11h11c1.2,0,2.2-1,2.2-2.2C50.2,33.7,49.2,32.8,48,32.8L48,32.8z"/>
</g>
</svg>
