

<svg version="1.1"  xmlns="http://www.w3.org/2000/svg" xmlns:xlink="http://www.w3.org/1999/xlink" x="0px" y="0px"
	 width="70px" height="70px" viewBox="0 0 70 70" enable-background="new 0 0 70 70" xml:space="preserve">
<g>
	<path fill="#474747" d="M21.9,49.4c0,0.6,0.2,1.2,0.6,1.6c0.4,0.4,0.8,0.6,1.4,0.6h29.4c0.5,0,1-0.2,1.3-0.6c0.4-0.4,0.5-1,0.5-1.6
		v-9.1c0-0.4-0.1-0.8-0.3-1.2c-0.2-0.4-0.5-0.6-0.9-0.8L42.4,33c1.4-0.8,2.5-2,3.4-3.6c0.8-1.6,1.3-3.3,1.3-5.2
		c0-1.3-0.2-2.6-0.7-3.8c-0.5-1.2-1.1-2.2-1.8-3.1c-0.8-0.9-1.7-1.6-2.7-2.1c-1-0.5-2.1-0.8-3.3-0.8c-1.2,0-2.2,0.3-3.3,0.8
		c-1,0.5-1.9,1.2-2.7,2.1c-0.8,0.9-1.4,1.9-1.8,3.1c-0.4,1.2-0.6,2.5-0.6,3.8c0,1.9,0.4,3.6,1.2,5.2c0.8,1.6,1.9,2.8,3.2,3.6
		l-11.3,5.4c-0.8,0.4-1.2,1.1-1.2,2V49.4z M2.1,15.5c-0.6,0-1.1-0.2-1.5-0.6C0.2,14.5,0,14,0,13.4l0-6.3c0-0.6,0.2-1.1,0.6-1.5
		C1,5.3,1.5,5,2.1,5h4.8V3.4c0-1,0.3-1.8,1-2.4c0.6-0.6,1.5-1,2.4-1l56.3,0c1,0,1.8,0.3,2.4,1c0.6,0.6,1,1.5,1,2.4v63.2
		c0,1-0.3,1.8-1,2.4c-0.6,0.6-1.5,1-2.4,1H10.3c-1,0-1.8-0.3-2.4-1c-0.6-0.6-1-1.5-1-2.4v-1.7H2.1c-0.6,0-1.1-0.2-1.5-0.6
		C0.2,63.8,0,63.3,0,62.7l0-6.3c0-0.6,0.2-1.1,0.6-1.5c0.4-0.4,0.9-0.6,1.5-0.6h4.8v-6H2.1c-0.6,0-1.1-0.2-1.5-0.6
		C0.2,47.4,0,46.9,0,46.3L0,40c0-0.6,0.2-1.1,0.6-1.5c0.4-0.4,0.9-0.6,1.5-0.6h4.8v-6H2.1c-0.6,0-1.1-0.2-1.5-0.6
		C0.2,30.9,0,30.4,0,29.9l0-6.3c0-0.6,0.2-1.1,0.6-1.5c0.4-0.4,0.9-0.6,1.5-0.6h4.8v-6H2.1z M6.9,15.5"/>
</g>
</svg>
