

<svg version="1.1"  xmlns="http://www.w3.org/2000/svg" xmlns:xlink="http://www.w3.org/1999/xlink" x="0px" y="0px"
	 width="70px" height="70px" viewBox="0 0 70 70" enable-background="new 0 0 70 70" xml:space="preserve">
<path fill="#474747" d="M35,0c-2.5,0-4.9,1-7,3L2.6,27.2C0.9,28.8,0,30.8,0,33.2c0,2.4,0.8,4.5,2.5,6.3c1.7,1.8,3.8,2.7,6.5,2.7
	c2.7,0,4.9-0.9,6.8-2.7l19.2-18l19,18c1.9,1.8,4.1,2.7,6.8,2.7c2.9,0,5.2-0.9,6.7-2.8c1.5-1.8,2.3-3.8,2.3-6c0-2.5-0.9-4.6-2.6-6.3
	L41.8,3C39.7,1,37.4,0,35,0L35,0z"/>
</svg>
