

<svg version="1.1"  xmlns="http://www.w3.org/2000/svg" xmlns:xlink="http://www.w3.org/1999/xlink" x="0px" y="0px"
	 width="70px" height="70px" viewBox="0 0 70 70" enable-background="new 0 0 70 70" xml:space="preserve">
<path fill="#474747" d="M35,42.2c2.4,0,4.7-1,6.8-3L67.2,15c1.7-1.6,2.6-3.7,2.6-6.3c0-2.2-0.8-4.1-2.3-6C66,0.9,63.7,0,60.8,0
	c-2.7,0-4.9,0.9-6.8,2.7l-19,18l-19.2-18C13.9,0.9,11.7,0,9,0C6.3,0,4.2,0.9,2.5,2.7C0.8,4.4,0,6.5,0,8.9c0,2.4,0.9,4.4,2.6,6.1
	L28,39.1C30.1,41.1,32.5,42.2,35,42.2L35,42.2z"/>
</svg>
