

<svg version="1.1"  xmlns="http://www.w3.org/2000/svg" xmlns:xlink="http://www.w3.org/1999/xlink" x="0px" y="0px"
	 width="70px" height="70px" viewBox="0 0 70 70" enable-background="new 0 0 70 70" xml:space="preserve">
<g>
	<path fill-rule="evenodd" clip-rule="evenodd" fill="#474747" d="M31.7,20.5L31.7,20.5c-0.6-0.5-1.4-0.9-2.2-0.9
		c-1.8,0-3.3,1.5-3.3,3.3c0,1,0.4,1.8,1.1,2.4l0,0L37.8,35l-10.5,9.6l0,0c-0.7,0.6-1.1,1.4-1.1,2.4c0,1.8,1.5,3.3,3.3,3.3
		c0.9,0,1.6-0.3,2.2-0.9v0l13.1-12c0.7-0.6,1.1-1.5,1.1-2.4s-0.4-1.8-1.1-2.4L31.7,20.5z M35,0C15.7,0,0,15.7,0,35
		c0,19.3,15.7,35,35,35c19.3,0,35-15.7,35-35C70,15.7,54.3,0,35,0L35,0z M35,63.4C19.3,63.4,6.6,50.7,6.6,35
		C6.6,19.3,19.3,6.6,35,6.6c15.7,0,28.4,12.8,28.4,28.4C63.4,50.7,50.7,63.4,35,63.4L35,63.4z M35,63.4"/>
</g>
</svg>
