<svg version="1.1"  xmlns="http://www.w3.org/2000/svg" xmlns:xlink="http://www.w3.org/1999/xlink" x="0px" y="0px"
	 width="70px" height="70px" viewBox="0 0 70 70" enable-background="new 0 0 70 70" xml:space="preserve">
<path fill="#474747" d="M42.2,35c0-2.5-1-4.9-3-7L15,2.6C13.4,0.9,11.3,0,8.9,0C6.5,0,4.4,0.8,2.7,2.5C0.9,4.2,0,6.3,0,9
	c0,2.7,0.9,4.9,2.7,6.8l18,19.2l-18,19C0.9,55.9,0,58.1,0,60.8c0,2.9,0.9,5.2,2.8,6.7c1.8,1.5,3.8,2.3,6,2.3c2.5,0,4.6-0.9,6.3-2.6
	l24.1-25.4C41.1,39.7,42.2,37.4,42.2,35L42.2,35z"/>
</svg>
