

<svg version="1.1"  xmlns="http://www.w3.org/2000/svg" xmlns:xlink="http://www.w3.org/1999/xlink" x="0px" y="0px"
	 width="70px" height="70px" viewBox="0 0 70 70" enable-background="new 0 0 70 70" xml:space="preserve">
<path fill="#474747" d="M0,35c0,2.4,1,4.7,3,6.8l24.1,25.4c1.6,1.7,3.7,2.6,6.3,2.6c2.2,0,4.1-0.8,6-2.3c1.8-1.5,2.8-3.8,2.8-6.7
	c0-2.7-0.9-4.9-2.7-6.8l-18-19l18-19.2c1.8-1.9,2.7-4.1,2.7-6.8c0-2.7-0.9-4.8-2.7-6.5C37.7,0.8,35.6,0,33.2,0
	c-2.4,0-4.4,0.9-6.1,2.6L3,28C1,30.1,0,32.5,0,35L0,35z"/>
</svg>
