

<svg version="1.1"  xmlns="http://www.w3.org/2000/svg" xmlns:xlink="http://www.w3.org/1999/xlink" x="0px" y="0px"
	 width="70px" height="70px" viewBox="0 0 70 70" enable-background="new 0 0 70 70" xml:space="preserve">
<g>
	<g>
		<path fill="#474747" d="M61.9,46.4h-1.5v-17c0-11.3-8-20.6-18.7-22.7C41.1,2.9,37.9,0,34,0c-3.9,0-7.1,2.9-7.6,6.6
			C15.8,8.7,7.7,18.1,7.7,29.4v17H6.2c-3.4,0-6.2,2.8-6.2,6.2c0,3.4,2.8,6.2,6.2,6.2h55.7c3.4,0,6.2-2.8,6.2-6.2
			C68,49.2,65.3,46.4,61.9,46.4z M34,69.9c4.3,0,7.7-3.5,7.7-7.7H26.3C26.3,66.4,29.8,69.9,34,69.9z"/>
	</g>
</g>
</svg>
