<?xml version="1.0" encoding="utf-8"?>
<!-- Generator: Adobe Illustrator 18.1.0, SVG Export Plug-In . SVG Version: 6.00 Build 0)  -->
<svg version="1.1"  xmlns="http://www.w3.org/2000/svg" xmlns:xlink="http://www.w3.org/1999/xlink" x="0px" y="0px"
	 viewBox="15 -14 70 70" enable-background="new 15 -14 70 70" xml:space="preserve">
<path fill="#FFFFFF" d="M60.8,44.3c0,1.2-0.9,2.1-2.1,2.1H41.8c-1.2,0-2.1-0.9-2.1-2.1c0-1.2,0.9-2.1,2.1-2.1h16.9
	C59.8,42.2,60.8,43.1,60.8,44.3z M58.7,47.5H41.8c-1.4,0-2.5,1.3-2,2.8c0.3,0.9,1.2,1.4,2.1,1.4l0,0c1.2,0,2.3,0.7,2.9,1.8l0,0
	c0.7,1.5,2.2,2.4,3.9,2.4h3.1c1.6,0,3.2-0.9,3.9-2.4l0,0c0.5-1.1,1.7-1.8,2.9-1.8l0,0c0.9,0,1.8-0.5,2.1-1.4
	C61.1,48.8,60.1,47.5,58.7,47.5z M60.8,39c0,1.2-0.9,2.1-2.1,2.1H41.8c-1.2,0-2.1-0.9-2.1-2.1c0-1.1,0.9-2,2-2.1
	C40.3,24.9,28,22.3,28,8.3C28-4,37.9-14,50.2-14S72.4-4,72.4,8.3c0,14-12.3,16.7-13.6,28.6C59.9,36.9,60.8,37.8,60.8,39z M45.3-8.1
	C45-8.9,44-9.3,43.2-9c-5.3,2.3-9.4,7-10.9,12.6c-0.2,0.9,0.3,1.7,1.1,1.9c0.1,0,0.3,0.1,0.4,0.1c0.7,0,1.4-0.5,1.5-1.2
	C36.6-0.3,40-4.2,44.5-6C45.3-6.3,45.7-7.2,45.3-8.1z"/>
</svg>
