<?xml version="1.0" encoding="utf-8"?>
<!-- Generator: Adobe Illustrator 18.1.0, SVG Export Plug-In . SVG Version: 6.00 Build 0)  -->
<svg version="1.1"  xmlns="http://www.w3.org/2000/svg" xmlns:xlink="http://www.w3.org/1999/xlink" x="0px" y="0px"
	 viewBox="15 -14 70 70" enable-background="new 15 -14 70 70" xml:space="preserve">
<path fill="#FFFFFF" d="M57.8,46.7c0,0.9-0.7,1.7-1.7,1.7H42.9c-0.9,0-1.7-0.7-1.7-1.7S42,45,42.9,45h13.3
	C57.1,45,57.8,45.8,57.8,46.7z M56.2,49.2H42.9c-1.1,0-1.9,1.1-1.6,2.2c0.2,0.7,0.9,1.1,1.6,1.1l0,0c1,0,1.8,0.5,2.3,1.4l0,0
	c0.6,1.2,1.8,1.9,3.1,1.9h2.4c1.3,0,2.5-0.7,3.1-1.9l0,0c0.4-0.9,1.3-1.4,2.3-1.4l0,0c0.7,0,1.4-0.4,1.6-1.1
	C58.1,50.2,57.3,49.2,56.2,49.2z M49.5-4c0.9,0,1.7-0.7,1.7-1.7v-6.6c0-0.9-0.7-1.7-1.7-1.7c-0.9,0-1.7,0.7-1.7,1.7v6.7
	C47.9-4.8,48.6-4,49.5-4z M31.9,2.3c0.3,0.3,0.7,0.5,1.2,0.5c0.4,0,0.8-0.2,1.2-0.5c0.6-0.6,0.6-1.7,0-2.4l-4.7-4.7
	c-0.6-0.6-1.7-0.6-2.3,0s-0.6,1.7,0,2.4L31.9,2.3z M28,17.6c0-0.9-0.7-1.7-1.7-1.7h-6.6c-0.9,0-1.7,0.7-1.7,1.7
	c0,0.9,0.7,1.7,1.7,1.7h6.6C27.2,19.3,28,18.5,28,17.6z M31.9,32.9l-4.7,4.7c-0.6,0.6-0.6,1.7,0,2.4c0.3,0.3,0.7,0.5,1.2,0.5
	c0.4,0,0.8-0.2,1.2-0.5l4.7-4.7c0.6-0.6,0.6-1.7,0-2.4C33.6,32.2,32.6,32.2,31.9,32.9z M67.2,32.9c-0.6-0.6-1.7-0.6-2.3,0
	s-0.6,1.7,0,2.4l4.7,4.7c0.3,0.3,0.7,0.5,1.2,0.5c0.4,0,0.8-0.2,1.2-0.5c0.6-0.6,0.6-1.7,0-2.4L67.2,32.9z M79.4,15.9h-6.6
	c-0.9,0-1.7,0.7-1.7,1.7c0,0.9,0.7,1.7,1.7,1.7h6.6c0.9,0,1.7-0.7,1.7-1.7C81.1,16.7,80.3,15.9,79.4,15.9z M66,2.8
	c0.4,0,0.8-0.2,1.2-0.5l4.7-4.7c0.6-0.6,0.6-1.7,0-2.4c-0.6-0.6-1.7-0.6-2.3,0L64.8,0c-0.6,0.6-0.6,1.7,0,2.4
	C65.1,2.6,65.6,2.8,66,2.8z M57.8,42.5c0,0.9-0.7,1.7-1.7,1.7H42.9c-0.9,0-1.7-0.7-1.7-1.7c0-0.9,0.7-1.6,1.6-1.7
	c-1-9.4-10.7-11.4-10.7-22.5c0-9.6,7.8-17.5,17.4-17.5S67,8.8,67,18.4c0,11-9.7,13.1-10.7,22.5C57.1,40.9,57.8,41.7,57.8,42.5z
	 M45.7,5.6c-0.3-0.6-1-0.9-1.6-0.7c-4.2,1.7-7.5,5.4-8.6,9.8c-0.2,0.7,0.2,1.3,0.9,1.5c0.1,0,0.2,0,0.3,0c0.6,0,1.1-0.4,1.2-0.9
	c0.9-3.7,3.6-6.7,7.1-8.2C45.7,7,46,6.3,45.7,5.6z"/>
</svg>
