

<svg version="1.1"  xmlns="http://www.w3.org/2000/svg" xmlns:xlink="http://www.w3.org/1999/xlink" x="0px" y="0px"
	 width="70px" height="70px" viewBox="-364 606 70 70" enable-background="new -364 606 70 70" xml:space="preserve">
<g>
	<path fill="#474747" d="M-329,606c-19.4,0-35,15.6-35,35s15.6,35,35,35s35-15.6,35-35C-294.1,621.6-309.8,606-329,606L-329,606z
		 M-329,673.3c-18,0-32.4-14.5-32.4-32.2c0-17.8,14.4-32.4,32.4-32.4c17.8,0,32.4,14.4,32.4,32.4
		C-296.8,658.8-311.2,673.3-329,673.3L-329,673.3z"/>
</g>
<path fill="#474747" d="M-333.4,633.3l-5.9-10.6c1.1-0.8,2.4-1.7,3.5-2.5c0.5-0.3,1.3-0.2,1.7,0.4l4.6,8.2c0.3,0.6,0.2,1.5-0.3,1.9
	l-3,2.2C-333.1,633-333.3,633.2-333.4,633.3L-333.4,633.3z M-329.9,649c-1-1.5-1.9-3.1-2.9-4.8c-0.9-1.6-1.8-3.3-2.6-5
	c-0.6-1.3-0.6-3.1,0.2-4.3l-6.1-10.9c-2.2,1.6-3,6.9-1.9,12c0.5,2.2,1.3,4.3,2,6.3c0.8,1.9,1.8,3.9,2.8,5.7c1,1.8,2.1,3.7,3.3,5.4
	c1.3,1.7,2.6,3.3,4.1,4.8c3.6,3.4,8.2,4.8,10.4,3.2l-6.1-10.9C-327.6,650.8-329,650.2-329.9,649L-329.9,649z M-314.6,655.7l-4.6-8.2
	c-0.3-0.6-1.1-0.8-1.7-0.4l-1.6,1.1l-1.5,1c-0.2,0.1-0.4,0.2-0.5,0.3l5.9,10.6c1.1-0.9,2.4-1.7,3.5-2.5
	C-314.4,657.2-314.2,656.3-314.6,655.7L-314.6,655.7z"/>
</svg>
