

<svg version="1.1"  xmlns="http://www.w3.org/2000/svg" xmlns:xlink="http://www.w3.org/1999/xlink" x="0px" y="0px"
	 width="70px" height="70px" viewBox="0 0 70 70" enable-background="new 0 0 70 70" xml:space="preserve">
<g>
	<g>
		<path fill="#474747" d="M45.5,25.8h-1.2v-5.8C44.3,9.2,35.8,0.2,25.1,0c-0.3,0-0.9,0-1.2,0C13.3,0.2,4.7,9.2,4.7,19.9v5.8H3.5
			c-1.9,0-3.5,2-3.5,4.4v29.2c0,2.4,1.6,4.4,3.5,4.4h42.1c1.9,0,3.5-2,3.5-4.4V30.2C49,27.7,47.5,25.8,45.5,25.8L45.5,25.8z
			 M36.1,25.8H12.9v-5.8c0-6.4,5.2-11.7,11.6-11.7c6.4,0,11.6,5.3,11.6,11.7V25.8z M36.1,25.8"/>
	</g>
</g>
<g>
	<g>
		<path fill="#474747" stroke="#FFFFFF" stroke-width="2" stroke-miterlimit="10" d="M14.4,67.7c-0.1,0.8,0.5,1.6,1.4,1.6l6.1,0.7
			c0.1,0,0.1,0,0.2,0c0.4,0,0.7-0.1,1-0.4c0.3-0.3,0.5-0.7,0.5-1.2l-0.1-4l4,0.1c0.5,0,0.8-0.1,1.1-0.4c0.3-0.3,0.5-0.7,0.4-1.1
			l-0.1-4l4,0.1c0.4,0,0.8-0.1,1.1-0.4c0.3-0.3,0.5-0.7,0.4-1.1l-0.1-4l4,0.1c0.4,0,0.8-0.1,1.1-0.4l7.3-7.3
			c2.1,0.9,4.3,1.3,6.6,1.3c4.5,0,8.7-1.8,11.9-4.9c6.6-6.6,6.6-17.2,0-23.8c-3.2-3.2-7.4-4.9-11.9-4.9c-4.5,0-8.7,1.8-11.9,4.9
			c-3.2,3.2-4.9,7.4-4.9,11.9c0,2.3,0.5,4.5,1.3,6.6L15.6,59.3c-0.3,0.3-0.4,0.6-0.4,0.9L14.4,67.7z M55.2,28.5
			c-1.9-1.9-1.9-4.9,0-6.8c1.9-1.9,4.9-1.9,6.8,0c1.9,1.9,1.9,4.9,0,6.8C60.1,30.4,57.1,30.4,55.2,28.5L55.2,28.5z M20.3,60.7
			c-0.4-0.4-0.4-1.2,0-1.6l19-19c0.4,0.6,0.9,1.2,1.4,1.8L21.9,60.7c-0.2,0.2-0.5,0.3-0.8,0.3C20.8,61.1,20.5,61,20.3,60.7
			L20.3,60.7z M20.3,60.7"/>
	</g>
</g>
</svg>
