

<svg version="1.1"  xmlns="http://www.w3.org/2000/svg" xmlns:xlink="http://www.w3.org/1999/xlink" x="0px" y="0px"
	 width="70px" height="70px" viewBox="0 0 70 70" enable-background="new 0 0 70 70" xml:space="preserve">
<g>
	<g>
		<path fill="#474747" d="M35,0C15.7,0,0,15.7,0,35c0,19.3,15.7,35,35,35c19.3,0,35-15.7,35-35C69.9,15.7,54.3,0,35,0z M35,62.3
			C19.9,62.3,7.7,50,7.7,35c0-15,12.2-27.3,27.3-27.3c15,0,27.3,12.2,27.3,27.3C62.3,50,50,62.3,35,62.3z M43.3,32.7
			c-1.6-0.6-4.2-1.4-8-2.2c-2.4-0.5-3.1-1-3.4-1.3c-0.5-0.5-0.8-1.2-0.8-1.9c0-1.1,0.5-3,4.1-3c1.8,0,3.3,0.5,4.4,1.6
			c0.4,0.3,0.7,0.8,1,1.2l0,0l0.1,0.1c0.1,0.2,0.4,0.4,0.6,0.4H47c0.4,0,0.7-0.3,0.7-0.7c0-0.1-0.1-0.5-0.2-0.8
			c-1.5-4-4.5-6.3-9.1-7.1v-3.3c0-0.6-0.5-1.1-1.1-1.1h-4.5c-0.6,0-1.1,0.5-1.1,1.1v3.4c-2.8,0.6-4.9,1.7-6.2,3.3
			c-1.6,1.9-2.3,3.9-2.3,6.3c0,2.1,0.7,4,2.1,5.6c1.4,1.6,4.9,3,10.4,4.2c1.6,0.3,2.7,0.7,3.4,1.2c0.8,0.6,1.2,1.4,1.2,2.4
			c0,1.3-0.8,2.9-4.6,2.9c-1.3,0-2.4-0.2-3.3-0.6c-1.3-0.6-2.3-1.5-3-2.9l0-0.1l0,0c-0.1-0.2-0.4-0.4-0.6-0.4h-6.3
			c-0.4,0-0.7,0.3-0.7,0.7c0,0.1,0.1,0.3,0.1,0.3c1.5,4.9,4.8,7.8,10.1,8.6v3.5c0,0.6,0.5,1.1,1.1,1.1h4.5c0.6,0,1.1-0.5,1.1-1.1
			v-3.5c3-0.5,5.4-1.6,7.2-3.2c1.9-1.8,2.9-4.1,2.9-6.8c0-1.9-0.5-3.6-1.5-5C46,34.3,44.7,33.3,43.3,32.7z"/>
	</g>
</g>
</svg>
