<?xml version="1.0" encoding="utf-8"?>
<!-- Generator: Adobe Illustrator 19.1.1, SVG Export Plug-In . SVG Version: 6.00 Build 0)  -->
<svg version="1.1" id="Layer_1" xmlns="http://www.w3.org/2000/svg" xmlns:xlink="http://www.w3.org/1999/xlink" x="0px" y="0px"
	 viewBox="-270.3 362 70 70" style="enable-background:new -270.3 362 70 70;" xml:space="preserve">
<style type="text/css">
	.st0{fill:#999999;}
</style>
<g>
	<path class="st0" d="M-235.3,362c-19.4,0-35,15.6-35,35s15.6,35,35,35s35-15.6,35-35C-200.4,377.6-216.1,362-235.3,362L-235.3,362z
		 M-235.3,429.3c-18,0-32.4-14.5-32.4-32.2c0-17.8,14.4-32.4,32.4-32.4c17.8,0,32.4,14.4,32.4,32.4
		C-203.1,414.8-217.5,429.3-235.3,429.3L-235.3,429.3z"/>
</g>
<g>
	<g id="Shape_17">
		<g>
			<path class="st0" d="M-213.4,386c0-1-0.4-1.8-1-2.5c0,0,0,0,0,0c0,0,0,0,0,0c-0.7-0.7-1.7-1.2-2.7-1.2h-37.5
				c-1.1,0-2.1,0.5-2.7,1.2c0,0,0,0,0,0c0,0,0,0,0,0c-0.6,0.7-1,1.5-1,2.5V408c0,1,0.4,1.9,1,2.5c0,0,0,0,0,0c0,0,0,0,0,0
				c0.7,0.7,1.7,1.1,2.7,1.1h37.5c1.1,0,2-0.4,2.7-1.1c0,0,0,0,0,0c0,0,0,0,0,0c0.6-0.7,1-1.6,1-2.5L-213.4,386L-213.4,386z
				 M-228.2,395.8l13-10.8c0.1,0.3,0.2,0.6,0.2,0.9V408c0,0.3-0.1,0.6-0.2,0.8L-228.2,395.8z M-217.2,383.8c0.3,0,0.6,0.1,0.9,0.2
				l-19.7,16.3l-19.7-16.3c0.3-0.1,0.6-0.2,0.9-0.2H-217.2z M-256.8,408.9c-0.1-0.3-0.2-0.5-0.2-0.8V386c0-0.3,0.1-0.6,0.2-0.9
				l13,10.8L-256.8,408.9z M-254.8,410.2c-0.4,0-0.7-0.1-1-0.2l13.2-13.2l6.1,5c0.1,0.1,0.3,0.2,0.5,0.2s0.4-0.1,0.5-0.2l6.1-5
				l13.2,13.2c-0.3,0.2-0.6,0.2-1,0.2H-254.8L-254.8,410.2z"/>
		</g>
	</g>
</g>
</svg>
