

<svg version="1.1"  xmlns="http://www.w3.org/2000/svg" xmlns:xlink="http://www.w3.org/1999/xlink" x="0px" y="0px"
	 width="70px" height="70px" viewBox="0 0 70 70" enable-background="new 0 0 70 70" xml:space="preserve">
<path fill="#474747" d="M69.9,9.5V3.7C69.9,1.7,68.2,0,66,0H3.9C1.7,0,0,1.7,0,3.7v5.8H69.9z M69.9,9.5"/>
<path fill="#474747" d="M0,16v34.2c0,2.2,1.7,3.9,3.9,3.9H66c2.2,0,3.9-1.7,3.9-3.9V16H0z M55.5,46.2c-3.2,0-5.8-2.6-5.8-5.8
	c0-3.2,2.6-5.8,5.8-5.8c3.2,0,5.8,2.6,5.8,5.8C61.4,43.6,58.8,46.2,55.5,46.2z"/>
</svg>
