

<svg version="1.1"  xmlns="http://www.w3.org/2000/svg" xmlns:xlink="http://www.w3.org/1999/xlink" x="0px" y="0px"
	 width="70px" height="70px" viewBox="0 0 70 70" enable-background="new 0 0 70 70" xml:space="preserve">
<g>
	<path fill="#474747" d="M9.5,63.4c0,0-0.1,1.5,1.4,1.5c1.9,0,17.6,0,17.6,0V50.5c0,0-0.2-2.4,2.1-2.4h7.3c2.8,0,2.6,2.4,2.6,2.4
		v14.4c0,0,14.9,0,17.2,0c2,0,1.9-2,1.9-2V33.3L35.2,11.7L9.5,33.4C9.5,33.3,9.5,63.4,9.5,63.4z"/>
	<path fill="#474747" d="M0,31.3c0,0,2.2,4,7,0L35.5,7.2l26.8,24c5.6,4,7.6,0,7.6,0L35.5,0L0,31.3z"/>
	<polygon fill="#474747" points="61.6,7.1 54.7,7.1 54.8,15.5 61.6,21.2 	"/>
</g>
</svg>
