

<svg version="1.1"  xmlns="http://www.w3.org/2000/svg" xmlns:xlink="http://www.w3.org/1999/xlink" x="0px" y="0px"
	 width="70px" height="70px" viewBox="0 0 70 70" enable-background="new 0 0 70 70" xml:space="preserve">
<path fill="#474747" d="M5.8,48.1h1.5c0.4,5.7,5.1,10.2,10.9,10.2c5.8,0,10.5-4.5,10.9-10.2h10.2c0.4,5.7,5.1,10.2,10.9,10.2
	c5.8,0,10.5-4.5,10.9-10.2h5.1c2,0,3.6-1.6,3.6-3.6c0-1.8-1.3-3.2-2.9-3.6V26.2c0-2-0.8-3.8-2.1-5.2l-7.4-7.4c-1.3-1.2-3-2-4.9-2
	h-8.9V5.8c0-3.2-2.6-5.8-5.8-5.8H5.8C2.6,0,0,2.6,0,5.8v36.4C0,45.5,2.6,48.1,5.8,48.1L5.8,48.1z M50.3,43.7c2,0,3.6,1.6,3.6,3.6
	c0,2-1.6,3.6-3.6,3.6c-2,0-3.6-1.6-3.6-3.6C46.6,45.3,48.3,43.7,50.3,43.7z M18.2,43.7c2,0,3.6,1.6,3.6,3.6c0,2-1.6,3.6-3.6,3.6
	c-2,0-3.6-1.6-3.6-3.6C14.6,45.3,16.2,43.7,18.2,43.7z M43.7,30.6V18.9h8c1.4,0,2.2,0.6,3.2,1.6l3.1,3.1c1.1,1.1,1.7,1.8,1.7,3.2
	v3.7H43.7z"/>
</svg>
