
<!-- Generator: Adobe Illustrator 15.0.0, SVG Export Plug-In . SVG Version: 6.00 Build 0)  -->
<!DOCTYPE svg PUBLIC "-//W3C//DTD SVG 1.1//EN" "http://www.w3.org/Graphics/SVG/1.1/DTD/svg11.dtd">
<svg version="1.1"  xmlns="http://www.w3.org/2000/svg" xmlns:xlink="http://www.w3.org/1999/xlink" x="0px" y="0px"
	 width="64px" height="64px" viewBox="0 0 64 64" enable-background="new 0 0 64 64" xml:space="preserve">
<path id="path3267" fill="#ffffff" d="M14.483,1.644v6.909c-2.795,0-15.371,3.561-15.371,14.978c0,10.159,9.075,12.922,15.363,13.831l0.006,11.479
	c-4.593-1.311-5.427-4.848-6.063-7.768H-1.666c0.625,11.424,10.657,16.74,16.147,17.543v7.029h9.585v-6.924
	c7.588-0.404,16.575-6.951,16.575-15.934c0-10.284-8.947-13.206-16.575-13.99v-10.52c3.002,0.211,5.343,3.189,5.596,6.219h9.98
	c0-10.205-9.28-15.571-15.672-15.942V1.645L14.483,1.644L14.483,1.644z M14.537,18.376v8.722
	C7.78,26.992,7.648,19.586,14.537,18.376z M24.182,39.002c8.361,0.213,9.287,8.559-0.014,9.89L24.182,39.002z"/>
<path id="path3277" fill="#FFFFFF" d="M31.348,41.176l0.004-4.869"/>
</svg>
