<?xml version="1.0" encoding="utf-8"?>
<!-- Generator: Adobe Illustrator 18.1.0, SVG Export Plug-In . SVG Version: 6.00 Build 0)  -->
<svg version="1.1"  xmlns="http://www.w3.org/2000/svg" xmlns:xlink="http://www.w3.org/1999/xlink" x="0px" y="0px"
	 viewBox="15 -14 70 70" enable-background="new 15 -14 70 70" xml:space="preserve">
<g>
	<g>
		<path fill="#FFFFFF" d="M37.5-2.7V-14L22-0.9l15.5,13.8V1.2h41.1v-4H37.5V-2.7z M65.4,17.2c1.5,0,2.8-1.2,2.8-2.8
			c0-1.5-1.2-2.8-2.8-2.8h-8.3V8.8c0-1.5-1.2-2.8-2.8-2.8c-1.5,0-2.8,1.2-2.8,2.8v2.8h-2.8c-3.3,0-8.3,2.2-8.3,8.3v5.5
			c0,6.1,5,8.3,8.3,8.3h2.8v11.1h-8.3c-1.5,0-2.8,1.2-2.8,2.8c0,1.5,1.2,2.8,2.8,2.8h8.3v2.8c0,1.5,1.2,2.8,2.8,2.8
			c1.5,0,2.8-1.2,2.8-2.8v-2.8h2.8c3.3,0,8.3-2.2,8.3-8.3v-5.5c0-6.1-5-8.3-8.3-8.3h-2.8V17.2H65.4z M51.6,28.3h-2.8
			c-1.2,0-2.8-0.5-2.8-2.8V20c0-2.2,1.5-2.7,2.8-2.8h2.8V28.3z M59.9,33.8c1.2,0,2.8,0.5,2.8,2.8v5.5c0,2.2-1.5,2.7-2.8,2.8h-2.8
			V33.8H59.9z"/>
	</g>
</g>
</svg>
