

<svg version="1.1"  xmlns="http://www.w3.org/2000/svg" xmlns:xlink="http://www.w3.org/1999/xlink" x="0px" y="0px"
	 width="70px" height="70px" viewBox="0 0 70 70" enable-background="new 0 0 70 70" xml:space="preserve">
<path fill="#474747" d="M68.3,16.4L53.6,1.7C52.5,0.6,51,0,49.6,0c-1.5,0-2.9,0.6-4,1.7L4,43.2c-1.1,1.1-2.1,2.8-2.8,4.5
	C0.5,49.4,0,51.3,0,52.9V70h17.1c1.6,0,3.4-0.5,5.2-1.2c1.8-0.7,3.4-1.7,4.5-2.8l41.5-41.5c1.1-1.1,1.7-2.6,1.7-4
	C70,18.9,69.4,17.5,68.3,16.4z M10.5,47.4L42,16l4.7,4.7L15.2,52.1L10.5,47.4z M17.1,62.4h-5.7l-3.8-3.8v-5.7c0-0.3,0.1-1.2,0.6-2.3
	c0-0.1,11.3,11.1,11.3,11.1C18.2,62.2,17.4,62.4,17.1,62.4z M22.5,59.5l-4.7-4.7l31.5-31.5L54,28L22.5,59.5z M56.7,25.3l-12-12
	l4.9-4.9l12,12L56.7,25.3z"/>
</svg>
