

<svg version="1.1"  xmlns="http://www.w3.org/2000/svg" xmlns:xlink="http://www.w3.org/1999/xlink" x="0px" y="0px"
	 width="70px" height="70px" viewBox="0 0 70 70" enable-background="new 0 0 70 70" xml:space="preserve">
<path fill="#474747" d="M67.2,13.3H52.4c1.5-2.4,1.8-5.9,0.4-8.6C51.4,1.8,48.5,0,45.3,0c-1.3,0-2.5,0.3-3.7,0.9
	c-2.8,1.4-5,4.1-6.6,6.6c-1.5-2.5-3.7-5.2-6.6-6.6C27.2,0.3,26,0,24.7,0c-3.2,0-6.1,1.8-7.5,4.7c-1.3,2.7-1.1,6.2,0.4,8.6H2.7
	C1.2,13.3,0,14.5,0,16v12.1c0,1.5,1.2,2.7,2.7,2.7h0.7V44v5.4v14.3c0,2.9,2.3,5.2,5.2,5.2h52.6c2.9,0,5.2-2.3,5.2-5.2V30.9h0.7
	c1.5,0,2.7-1.2,2.7-2.7V16C70,14.5,68.7,13.3,67.2,13.3z M44,5.7c1.4-0.7,3.3-0.1,4,1.4c0.7,1.5,0.1,3.3-1.3,4
	c-1.1,0.6-2.6,0.8-4.3,0.8c-0.8,0-1.5-0.1-2.2-0.2c-0.1-0.4-0.3-0.8-0.5-1.2C40.7,8.6,42.2,6.6,44,5.7z M22,7.1
	c0.5-1,1.5-1.7,2.7-1.7c0.5,0,0.9,0.1,1.3,0.3c1.7,0.9,3.3,2.9,4.5,4.8c-0.2,0.4-0.4,0.8-0.5,1.2c-0.7,0.1-1.4,0.2-2.2,0.2
	c-1.8,0-3.2-0.3-4.3-0.8C21.9,10.3,21.3,8.6,22,7.1z M31.5,62.2H10.3V48.1h21.3V62.2z M10.3,44.7V30.9h21.3v13.8H10.3z M59.5,62.2
	h-21V48.1h21V62.2z M59.5,44.7h-21V30.9h21V44.7z"/>
</svg>
