

<svg version="1.1"  xmlns="http://www.w3.org/2000/svg" xmlns:xlink="http://www.w3.org/1999/xlink" x="0px" y="0px"
	 width="70px" height="70px" viewBox="0 0 70 70" enable-background="new 0 0 70 70" xml:space="preserve">
<g>
	<g>
		<path fill="#474747" d="M65.6,0h-3.4v11.7H46.7V0H23.3v11.6H7.7V0H4.3C1.9,0,0,1.9,0,4.3v53.7c0,2.4,1.9,4.3,4.3,4.3h61.3
			c2.4,0,4.3-1.9,4.3-4.3V4.3C70,1.9,68,0,65.6,0z M62.3,54.7H7.7V19.5h54.5V54.7z M58.4,0h-8v7.7h8V0z M19.4,0h-8v7.7h8V0z
			 M27.2,39h-7.7v7.7h7.7V39z M27.2,27.4h-7.7v7.7h7.7V27.4z M38.8,39h-7.7v7.7h7.7V39z M38.8,27.4h-7.7v7.7h7.7V27.4z M50.5,39
			h-7.7v7.7h7.7V39z M50.5,27.4h-7.7v7.7h7.7V27.4z"/>
	</g>
</g>
</svg>
