
<!-- Generator: Adobe Illustrator 15.0.0, SVG Export Plug-In . SVG Version: 6.00 Build 0)  --> 
<!DOCTYPE svg PUBLIC "-//W3C//DTD SVG 1.1//EN" "http://www.w3.org/Graphics/SVG/1.1/DTD/svg11.dtd"> 
<svg version="1.1"  xmlns="http://www.w3.org/2000/svg" xmlns:xlink="http://www.w3.org/1999/xlink" x="0px" y="0px"
	 width="64px" height="64px" viewBox="0 0 64 64" enable-background="new 0 0 64 64" xml:space="preserve">
<path fill="#36609F" d="M32,0C14.328,0,0,14.328,0,32c0,17.676,14.328,32,32,32c17.676,0,32-14.324,32-32C64,14.328,49.676,0,32,0z
	 M38.855,32.012h-4.484c0,7.162,0,15.986,0,15.986h-6.644c0,0,0-8.732,0-15.986h-3.159v-5.647h3.159v-3.657
	C27.728,20.09,28.97,16,34.436,16l4.924,0.02v5.484c0,0-2.991,0-3.573,0s-1.41,0.29-1.41,1.54v3.32h5.065L38.855,32.012z"/>
</svg> 