<?xml version="1.0" encoding="utf-8"?>
<!-- Generator: Adobe Illustrator 19.1.0, SVG Export Plug-In . SVG Version: 6.00 Build 0)  -->
<svg version="1.1"  xmlns="http://www.w3.org/2000/svg" xmlns:xlink="http://www.w3.org/1999/xlink" x="0px" y="0px"
	 width="64px" height="64px" viewBox="-267 365 64 64" style="enable-background:new -267 365 64 64;" xml:space="preserve">
<style type="text/css">
	.st0{fill:#E04006;}
</style>
<g>
	<g>
		<g>
			<g>
				<path class="st0" d="M-239.3,402.3c-0.2-0.1-0.4-0.3-0.6-0.4c-0.6-0.2-1.3-0.3-2-0.3h-0.1c-3.2,0-6.1,2-6.1,4.2
					c0,2.4,2.4,4.3,5.5,4.3c4.1,0,6.2-1.4,6.2-4.2c0-0.3,0-0.5-0.1-0.8C-236.8,404-237.8,403.3-239.3,402.3z"/>
				<path class="st0" d="M-241.6,393.8C-241.6,393.8-241.6,393.8-241.6,393.8c0.8,0,1.4-0.3,1.9-0.9c0.8-0.9,1.1-2.4,0.9-4
					c-0.4-2.8-2.4-5.2-4.5-5.2l-0.1,0c-0.7,0-1.4,0.3-1.9,0.9c-0.8,0.9-1.1,2.3-0.9,3.9C-245.7,391.3-243.7,393.7-241.6,393.8
					L-241.6,393.8L-241.6,393.8z"/>
				<path class="st0" d="M-235,365c-17.6,0-32,14.4-32,32c0,17.6,14.4,32,32,32c17.6,0,32-14.4,32-32C-203,379.4-217.4,365-235,365z
					 M-238.7,412.6c-1.2,0.3-2.5,0.5-3.9,0.5c-1.5,0-3-0.2-4.4-0.5c-2.7-0.7-4.6-1.9-5.5-3.6c-0.4-0.7-0.6-1.5-0.6-2.2
					c0-0.8,0.2-1.6,0.6-2.4c1.5-3.1,5.3-5.2,9.5-5.2c0,0,0.1,0,0.1,0c-0.3-0.6-0.5-1.2-0.5-1.9c0-0.3,0-0.7,0.1-1
					c-4.4-0.1-7.8-3.4-7.8-7.7c0-3,2.4-6,5.9-7.2c1-0.4,2.1-0.5,3.1-0.5h9.5c0.3,0,0.6,0.2,0.7,0.5c0.1,0.3,0,0.6-0.3,0.8l-2.1,1.5
					c-0.1,0.1-0.3,0.1-0.4,0.1h-0.8c1,1.2,1.6,2.9,1.6,4.7c0,2.1-1.1,4.1-3,5.6c-1.5,1.2-1.5,1.5-1.5,2.1c0,0.4,1.1,1.5,2.2,2.3
					c2.7,1.9,3.6,3.7,3.6,6.8C-232.5,408.7-234.9,411.5-238.7,412.6z M-217.2,396.3c0,0.4-0.3,0.7-0.7,0.7h-5.4v5.4
					c0,0.4-0.3,0.7-0.7,0.7h-1.5c-0.4,0-0.8-0.3-0.8-0.7V397h-5.4c-0.4,0-0.7-0.3-0.7-0.7v-1.5c0-0.4,0.3-0.8,0.7-0.8h5.4v-5.4
					c0-0.4,0.3-0.7,0.8-0.7h1.5c0.4,0,0.7,0.3,0.7,0.7v5.4h5.4c0.4,0,0.7,0.3,0.7,0.7L-217.2,396.3L-217.2,396.3z"/>
			</g>
		</g>
	</g>
</g>
</svg>
