

<svg version="1.1"  xmlns="http://www.w3.org/2000/svg" xmlns:xlink="http://www.w3.org/1999/xlink" x="0px" y="0px"
	 width="70px" height="70px" viewBox="0 0 70 70" enable-background="new 0 0 70 70" xml:space="preserve">
  <g>
    <g>
      <path fill="#474747" d="M64.3,5.7C60.6,2,55.7,0,50.5,0c-5.2,0-10.1,2-13.7,5.7L35,7.5l-1.8-1.8C29.5,2,24.6,0,19.4,0
			C14.2,0,9.4,2,5.7,5.7c-7.6,7.6-7.6,19.9,0,27.5l27.2,27.2c0.4,0.4,1,0.7,1.6,0.8c0.2,0,0.4,0.1,0.6,0.1c0.8,0,1.5-0.3,2.1-0.9
			l27.2-27.2C71.9,25.6,71.9,13.3,64.3,5.7L64.3,5.7z M60,28.9L35,54L9.9,28.9c-5.2-5.2-5.2-13.8,0-19C12.5,7.4,15.8,6,19.4,6
			c3.6,0,7,1.4,9.5,3.9l3.9,3.9c1.1,1.1,3.1,1.1,4.2,0L41,9.9C43.6,7.4,47,6,50.5,6c3.6,0,7,1.4,9.5,3.9
			C65.3,15.2,65.3,23.7,60,28.9L60,28.9z M60,28.9"/>
    </g>
  </g>
</svg>
