

<svg version="1.1"  xmlns="http://www.w3.org/2000/svg" xmlns:xlink="http://www.w3.org/1999/xlink" x="0px" y="0px"
	 width="70px" height="70px" viewBox="0 0 70 70" enable-background="new 0 0 70 70" xml:space="preserve">
<g>
	<path fill="#474747" d="M35,0C15.6,0,0,15.6,0,35s15.6,35,35,35s35-15.6,35-35C69.9,15.6,54.2,0,35,0L35,0z M35,65.5
		C18,65.5,4.4,51.8,4.4,35S18,4.4,35,4.4C51.8,4.4,65.6,18,65.6,35C65.5,51.8,51.8,65.5,35,65.5L35,65.5z"/>
</g>
<g>
	<path fill="#474747" d="M15.8,34.2l17.4-0.7l10.6-12.2L54,36.5l2-0.3L44,19.3l-12.2,2.3v-2.2l-1-0.2l-3,0.6v2.5L23.8,23L14,31.9
		v2.3C14,34.2,15,34.2,15.8,34.2L15.8,34.2z M15.8,34.2"/>
	<path fill="#474747" d="M43.8,22.3L33.6,34.2l-16.7,0.7V49l15.3,1.8v0l9.6-1.1v-11l4.4,0v10.5l7.1-0.9V36.6L43.8,22.3z M23.4,44.6
		l-4.4-0.3v-5.7h4.4V44.6z M30.9,45l-5.2-0.3v-6.1h5.2V45z M39.6,44.8l-5.5,0.4v-6.5l5.5,0V44.8z M52,44l-4.1,0.3v-5.6l4.1,0V44z
		 M52,44"/>
</g>
</svg>
