
<!-- Generator: Adobe Illustrator 15.0.0, SVG Export Plug-In . SVG Version: 6.00 Build 0)  --> 
<!DOCTYPE svg PUBLIC "-//W3C//DTD SVG 1.1//EN" "http://www.w3.org/Graphics/SVG/1.1/DTD/svg11.dtd"> 
<svg version="1.1"  xmlns="http://www.w3.org/2000/svg" xmlns:xlink="http://www.w3.org/1999/xlink" x="0px" y="0px"
	 width="64px" height="64px" viewBox="0 0 64 64" enable-background="new 0 0 64 64" xml:space="preserve">
<g>
  <path fill="#0A6C9B" d="M33.918,29.652v-0.066c-0.012,0.024-0.031,0.044-0.043,0.066H33.918z"/>
  <path fill="#0A6C9B" d="M32,0C14.328,0,0,14.328,0,32c0,17.676,14.326,32,32,32c17.672,0,32-14.324,32-32C64,14.328,49.672,0,32,0z
		 M23.268,47.293h-6.862V26.66h6.861L23.268,47.293L23.268,47.293z M19.834,23.84h-0.042c-2.3,0-3.792-1.586-3.792-3.566
		c0-2.024,1.536-3.566,3.878-3.566c2.348,0,3.792,1.542,3.836,3.566C23.716,22.254,22.228,23.84,19.834,23.84z M48,47.293h-6.859
		V36.252c0-2.773-0.992-4.668-3.477-4.668c-1.891,0-3.023,1.284-3.52,2.514c-0.185,0.441-0.228,1.049-0.228,1.672v11.523H27.06
		c0,0,0.089-18.699,0-20.631h6.858v2.922c0.914-1.412,2.543-3.408,6.184-3.408c4.512,0,7.898,2.946,7.898,9.285V47.293z"/>
</g>
</svg> 