<?xml version="1.0" encoding="utf-8"?>
<!-- Generator: Adobe Illustrator 18.1.0, SVG Export Plug-In . SVG Version: 6.00 Build 0)  -->
<svg version="1.1"  xmlns="http://www.w3.org/2000/svg" xmlns:xlink="http://www.w3.org/1999/xlink" x="0px" y="0px"
	 viewBox="15 -14 70 70" enable-background="new 15 -14 70 70" xml:space="preserve">
<g>
	<g>
		<path fill="#FFFFFF" d="M23.7,8h-7.5c-0.3,0-0.6,0.1-0.9,0.4C15.1,8.6,15,8.9,15,9.2v7.5c0,0.3,0.1,0.6,0.4,0.9
			c0.2,0.3,0.5,0.4,0.8,0.4h7.5c0.3,0,0.6-0.1,0.9-0.4c0.2-0.2,0.4-0.5,0.4-0.9V9.2c0-0.3-0.1-0.6-0.4-0.9C24.4,8.1,24.1,8,23.7,8z
			 M23.7,38h-7.5c-0.3,0-0.6,0.1-0.9,0.4c-0.2,0.2-0.3,0.5-0.3,0.8v7.5c0,0.3,0.1,0.6,0.4,0.9c0.2,0.3,0.5,0.4,0.8,0.4h7.5
			c0.3,0,0.6-0.1,0.9-0.4c0.2-0.2,0.4-0.5,0.4-0.9v-7.5c0-0.3-0.1-0.6-0.4-0.9C24.4,38.1,24.1,38,23.7,38z M23.7,23h-7.5
			c-0.3,0-0.6,0.1-0.9,0.4c-0.2,0.2-0.3,0.5-0.3,0.8v7.5c0,0.3,0.1,0.6,0.4,0.9c0.2,0.3,0.5,0.4,0.8,0.4h7.5c0.3,0,0.6-0.1,0.9-0.4
			c0.2-0.2,0.4-0.5,0.4-0.9v-7.5c0-0.3-0.1-0.6-0.4-0.9C24.4,23.1,24.1,23,23.7,23z M23.7-7h-7.5c-0.3,0-0.6,0.1-0.8,0.4
			C15.1-6.4,15-6.1,15-5.8v7.5c0,0.3,0.1,0.6,0.4,0.9C15.7,2.9,15.9,3,16.2,3h7.5c0.3,0,0.6-0.1,0.9-0.4C24.9,2.4,25,2.1,25,1.7
			v-7.5c0-0.3-0.1-0.6-0.4-0.9C24.4-6.9,24.1-7,23.7-7z M83.7,38H31.2c-0.3,0-0.6,0.1-0.9,0.4c-0.2,0.2-0.4,0.5-0.4,0.9v7.5
			c0,0.3,0.1,0.6,0.4,0.9c0.2,0.2,0.5,0.4,0.9,0.4h52.5c0.3,0,0.6-0.1,0.9-0.4c0.2-0.2,0.4-0.5,0.4-0.9v-7.5c0-0.3-0.1-0.6-0.4-0.9
			C84.4,38.1,84.1,38,83.7,38z M83.7,23H31.2c-0.3,0-0.6,0.1-0.9,0.4c-0.2,0.2-0.4,0.5-0.4,0.9v7.5c0,0.3,0.1,0.6,0.4,0.9
			c0.2,0.2,0.5,0.4,0.9,0.4h52.5c0.3,0,0.6-0.1,0.9-0.4c0.2-0.2,0.4-0.5,0.4-0.9v-7.5c0-0.3-0.1-0.6-0.4-0.9
			C84.4,23.1,84.1,23,83.7,23z M84.6-6.6C84.4-6.9,84.1-7,83.7-7H31.2c-0.3,0-0.6,0.1-0.9,0.4C30.1-6.4,30-6.1,30-5.8v7.5
			c0,0.3,0.1,0.6,0.4,0.9C30.6,2.8,30.9,3,31.3,3h52.5c0.3,0,0.6-0.1,0.9-0.4C84.9,2.4,85,2.1,85,1.7v-7.5C85-6.1,84.9-6.4,84.6-6.6
			z M83.7,8H31.2c-0.3,0-0.6,0.1-0.9,0.4c-0.2,0.2-0.4,0.5-0.4,0.9v7.5c0,0.3,0.1,0.6,0.4,0.9c0.2,0.2,0.5,0.4,0.9,0.4h52.5
			c0.3,0,0.6-0.1,0.9-0.4c0.2-0.2,0.4-0.5,0.4-0.9V9.3c0-0.3-0.1-0.6-0.4-0.9C84.4,8.1,84.1,8,83.7,8z"/>
	</g>
</g>
</svg>
