

<svg version="1.1"  xmlns="http://www.w3.org/2000/svg" xmlns:xlink="http://www.w3.org/1999/xlink" x="0px" y="0px"
	 viewBox="12 -11 64 64" enable-background="new 12 -11 64 64" xml:space="preserve">
<path fill="#FFFFFF" d="M56.5,11.2C56.5-1,46.5-11,34.2-11C22-11,12-1,12,11.2c0,4,1.1,7.8,3,11.1h0l0.1,0.1c0.2,0.4,0.4,0.7,0.7,1
	L34,52.9l0.1,0.1l18.5-29.3c0.3-0.4,0.6-0.9,0.8-1.3l0,0l0.1-0.1h0C55.4,19.1,56.5,15.3,56.5,11.2z M34.2,21.1
	c-5.9,0-10.7-4.8-10.7-10.7S28.3-0.4,34.2-0.4C40.1-0.4,45,4.4,45,10.4C45,16.3,40.1,21.1,34.2,21.1z"/>
</svg>
