

<svg version="1.1"  xmlns="http://www.w3.org/2000/svg" xmlns:xlink="http://www.w3.org/1999/xlink" x="0px" y="0px"
	 viewBox="12 -11 64 64" enable-background="new 12 -11 64 64" xml:space="preserve">
<path fill="#FFFFFF" d="M61,15V7c0-9.9-8.1-18-18-18c-9.9,0-18,8.1-18,18v8c-3.3,0-6,2.7-6,6v6v2v4v2c0,9.9,8.1,18,18,18h12
	c9.9,0,18-8.1,18-18v-2v-4v-2v-6C67,17.7,64.3,15,61,15z M44.9,36.5v5c0,1-0.8,1.9-1.9,1.9c-1,0-1.9-0.8-1.9-1.9v-5
	c-1.6-0.7-2.8-2.3-2.8-4.2c0-2.6,2.1-4.6,4.6-4.6c2.6,0,4.6,2.1,4.6,4.6C47.6,34.1,46.5,35.8,44.9,36.5z M51,7v8H35V7v0
	c0-4.4,3.6-8,8-8S51,2.6,51,7L51,7z"/>
</svg>
