

<svg version="1.1"  xmlns="http://www.w3.org/2000/svg" xmlns:xlink="http://www.w3.org/1999/xlink" x="0px" y="0px" width="41px" height="44px" 
	 viewBox="0 0 41 44.9" enable-background="new 0 0 41 44.9" xml:space="preserve">
<g>
	<path fill="#FF3A59" d="M39.3,0.8c-2.2-0.7-5.4,1-6.7,3.5c-1,1.9-1.8,3.5-2.5,4.9c-1.3,2.6-2.1,4.2-3.1,5c-1.4,1.1-3.5,0.4-6.4-0.5
		L4.8,8.8c-1.5-0.4-3,0.4-3.5,1.8c-0.4,1.5,0.4,3,1.8,3.5l6.9,2.1l7.3,2.2l1.6,0.5l0,0c1.7,0.7,2.6,2.6,2,4.4
		c-0.4,1.3-1.5,2.3-2.8,2.5c0.9,0.9,1.3,2.3,0.9,3.6c-0.5,1.8-2.4,2.9-4.2,2.5l0,0L14.6,32c0,0,0,0,0,0l-1-0.3L6,29.3l-3.1-0.9
		c-1-0.3-2.1,0.3-2.5,1.3c-0.3,1,0.3,2.1,1.3,2.5l14.6,4.5c5.9,1.8,10-1.8,11.5-6.1c0.9-2.7,7.8-21.3,10.1-24.9
		c0.7-1.1,1.3-1.5,1.8-1.9c0.5-0.3,0.7-0.5,0.9-1.1C40.7,2.3,40.6,1.2,39.3,0.8z"/>
	<path fill="#FF3A59" d="M6.8,38.6c-0.5,1.6-2.1,2.4-3.7,2c-1.6-0.5-2.4-2.1-2-3.7c0.5-1.6,2.1-2.4,3.7-1.9
		C6.4,35.4,7.2,37,6.8,38.6z"/>
	<path fill="#FF3A59" d="M19,42.3c-0.3,1.1-1.3,1.9-2.4,2.1c-0.4,0.1-0.8,0-1.3-0.1c-1.6-0.5-2.4-2.1-1.9-3.7c0.5-1.6,2.1-2.4,3.7-2
		C18.6,39.1,19.4,40.8,19,42.3z"/>
	<path display="none" fill="#FF3A59" d="M18.3,29.3c0.4-1.5-0.4-3-1.8-3.4c0,0,0,0,0,0L16,25.7l0,0l-8.1-2.5c-1.5-0.4-3,0.4-3.5,1.8
		c-0.4,1.5,0.4,3,1.8,3.5l8.1,2.5l0,0l0.5,0.2C16.3,31.5,17.8,30.7,18.3,29.3z"/>
	<path fill="#FF3A59" d="M15.4,30.7c-0.2,0-0.5,0-0.7-0.1l-1.1-0.4l-0.4-0.1l-7.5-2.3c-0.6-0.2-1.1-0.6-1.4-1.2
		c-0.3-0.6-0.4-1.2-0.2-1.8c0.3-1,1.3-1.7,2.3-1.7c0.2,0,0.5,0,0.7,0.1l8.1,2.5l0,0l0.9,0.3l0,0l0,0c1.3,0.4,2,1.7,1.6,3
		C17.4,30,16.4,30.7,15.4,30.7z"/>
	<path display="none" fill="#FF3A59" d="M15.6,30.3c-0.2,0-0.4,0-0.5-0.1l-1.4-0.5l0,0l-7.1-2.2c-0.5-0.1-0.8-0.5-1.1-0.9
		c-0.2-0.4-0.3-0.9-0.1-1.4c0.2-0.8,1-1.3,1.8-1.3c0.2,0,0.4,0,0.5,0.1l7.2,2.2l0,0l0.9,0.3l0.4,0.1l0.1,0l0,0
		c1,0.3,1.5,1.3,1.2,2.3C17.1,29.8,16.4,30.3,15.6,30.3L15.6,30.3z"/>
	<path display="none" fill="#FF3A59" d="M20.1,23.1c0.4-1.5-0.4-3-1.8-3.5c0,0,0,0,0,0l-0.4-0.1l0,0l-8.1-2.5
		c-1.5-0.4-3,0.4-3.5,1.8c-0.4,1.5,0.4,3,1.8,3.5l8.1,2.5l0,0l0.5,0.1C18.2,25.4,19.7,24.6,20.1,23.1z"/>
	<path fill="#FF3A59" d="M17.2,24.7c-0.2,0-0.5,0-0.7-0.1l-1.1-0.3l-0.4-0.1l-7.4-2.3c-1.3-0.4-2-1.7-1.6-3c0.3-1,1.2-1.7,2.3-1.7
		c0.2,0,0.5,0,0.7,0.1l8,2.4l0,0l0.9,0.3c1.3,0.4,2,1.7,1.6,3C19.1,24,18.2,24.7,17.2,24.7z"/>
	<path display="none" fill="#FF3A59" d="M17.5,24.1c-0.2,0-0.4,0-0.5-0.1l-1.4-0.4l0,0l-7.2-2.2c-1-0.3-1.5-1.3-1.2-2.3
		c0.2-0.8,1-1.3,1.7-1.3c0.2,0,0.4,0,0.5,0.1l7.3,2.2l0,0l1.3,0.4c1,0.3,1.5,1.3,1.2,2.3C19,23.6,18.3,24.1,17.5,24.1L17.5,24.1z"/>
</g>
</svg>
