

<svg version="1.1"  xmlns="http://www.w3.org/2000/svg" xmlns:xlink="http://www.w3.org/1999/xlink" x="0px" y="0px"
	 width="70px" height="70px" viewBox="0 0 70 70" enable-background="new 0 0 70 70" xml:space="preserve">
<g>
	<path fill="#474747" d="M35,35.2l-8.7-7.6L1.6,48.8c0.9,0.9,2.1,1.4,3.4,1.4H65c1.3,0,2.5-0.5,3.4-1.4L43.7,27.5L35,35.2z M35,35.2
		"/>
	<path fill="#474747" d="M68.4,1.4C67.5,0.5,66.3,0,65,0H5C3.7,0,2.5,0.5,1.6,1.4L35,30.1L68.4,1.4z M68.4,1.4"/>
	<path fill="#474747" d="M0,4.4v41.7l24.2-20.6L0,4.4z M0,4.4"/>
	<path fill="#474747" d="M45.8,25.5L70,46.1V4.4L45.8,25.5z M45.8,25.5"/>
</g>
</svg>
