<?xml version="1.0" encoding="utf-8"?>
<!-- Generator: Adobe Illustrator 18.1.0, SVG Export Plug-In . SVG Version: 6.00 Build 0)  -->
<svg version="1.1"  xmlns="http://www.w3.org/2000/svg" xmlns:xlink="http://www.w3.org/1999/xlink" x="0px" y="0px"
	 viewBox="15 -14 70 70" enable-background="new 15 -14 70 70" xml:space="preserve">
<path fill="#FFFFFF" d="M75.4-14H24.5C19.3-14,15-9.7,15-4.5v39.7c0,5.3,4.3,9.5,9.5,9.5h50.8c5.3,0,9.5-4.3,9.5-9.5V-4.5
	C84.9-9.7,80.6-14,75.4-14z M75.8-7.1c0.4,0,0.7,0.1,1,0.2L50.4,13.3L23.9-6.9C24.3-7,24.6-7.1,25-7.1H75.8z M74.3,37.9H25.4
	c-1.8,0-3.2-1.4-3.2-3.2V-1.5l26.2,21.3c0.6,0.5,1.3,0.7,2,0.7s1.4-0.2,2-0.7L77.5-1.5v36.2C77.5,36.5,76.1,37.9,74.3,37.9z"/>
</svg>
