

<svg version="1.1"  xmlns="http://www.w3.org/2000/svg" xmlns:xlink="http://www.w3.org/1999/xlink" x="0px" y="0px"
	 width="70px" height="70px" viewBox="0 0 70 70" enable-background="new 0 0 70 70" xml:space="preserve">
<g>
	<g>
		<defs>
			<rect id="SVGID_1_" x="-3.2" y="-0.1" width="67.3" height="70.9"/>
		</defs>
		<clipPath id="SVGID_2_">
			<use xlink:href="#SVGID_1_"  overflow="visible"/>
		</clipPath>
		<path clip-path="url(#SVGID_2_)" fill="#ff3a59" d="M20.9,20.4c0.9,1.6,6.7,2.4,9.5,2.3c2.8-0.1,8.6-1.4,8.4-3.8
			c-0.4-4.5,2.4-10.5,2.9-11.4c1.1-1.7,1.2-5.3-3.5-3.6c-1.1,0.4-3.7,3.1-4.7-0.1c-2-5.7-6.5-4.1-7.5-0.4c-0.7,2.6-3.5,2.8-6.6,2.5
			c-3.7-0.3-4.2,2-3,3.9C17.1,10.9,19.9,18.5,20.9,20.4L20.9,20.4z M20.9,20.4"/>
	</g>
	<path fill="#ff3a59" d="M30.6,26.6c-7.5,0.3-9.7-2.5-10.1-2.3C9.4,28.1,0,39.4,0,51c0,14.8,8.4,18.7,31.9,18.7
		c23.5,0,31.9-4,31.9-18.7c0-12.4-11.4-24.2-23.2-27.6C40,23.2,38.9,26.3,30.6,26.6L30.6,26.6z M32.2,56.1v3c0,0.2-0.2,0.4-0.4,0.4
		h-2.7c-0.2,0-0.4-0.2-0.4-0.4v-2.8c-1.9-0.1-3.9-0.7-5.1-1.5c-0.2-0.1-0.2-0.3-0.2-0.5l0.9-3.1c0-0.1,0.1-0.2,0.2-0.3
		c0.1,0,0.2,0,0.4,0c0.9,0.5,2.6,1.4,4.9,1.4c1.9,0,3.1-0.8,3.1-2.1c0-1.2-0.9-2.1-3.3-2.9c-2.9-1.1-5.9-2.7-5.9-6.2
		c0-3,2-5.2,5.3-5.9v-2.8c0-0.2,0.2-0.4,0.4-0.4H32c0.2,0,0.4,0.2,0.4,0.4V35c2,0.1,3.4,0.7,4.3,1.1c0.2,0.1,0.3,0.3,0.2,0.5l-0.9,3
		c0,0.1-0.1,0.2-0.2,0.3c-0.1,0.1-0.2,0.1-0.3,0c-0.9-0.4-2.2-1.1-4.3-1.1c-1.7,0-2.7,0.7-2.7,1.9c0,1,0.9,1.8,3.7,2.8
		c3.9,1.5,5.5,3.4,5.5,6.5C37.7,53,35.6,55.4,32.2,56.1L32.2,56.1z M32.2,56.1"/>
</g>
</svg>
