<?xml version="1.0" encoding="utf-8"?>
<!-- Generator: Adobe Illustrator 18.1.0, SVG Export Plug-In . SVG Version: 6.00 Build 0)  -->
<svg version="1.1"  xmlns="http://www.w3.org/2000/svg" xmlns:xlink="http://www.w3.org/1999/xlink" x="0px" y="0px"
	 viewBox="15 -14 70 70" enable-background="new 15 -14 70 70" xml:space="preserve">
<g>
	<g>
		<path fill="#484848" d="M79.7,39.3v-4.6c-1,0.7-2,1.4-3.2,1.9L79.7,39.3z M16.7,1.9v37.4l21.7-18.5L16.7,1.9z M79.7,7.3V2L76,5.2
			C77.3,5.7,78.6,6.4,79.7,7.3z M69.4,38.2c-8,0-14.6-5.4-16.6-12.7l-4.6,4l-7.8-6.8L18.1,41.8c0.8,0.8,1.9,1.2,3.1,1.2h53.9
			c1.2,0,2.3-0.5,3.1-1.2l-4.7-4.1C72.2,38,70.8,38.2,69.4,38.2z M52.2,21.6c0-0.2,0-0.4,0-0.5c0-9.5,7.7-17.2,17.2-17.2
			c1.1,0,2.1,0.1,3.2,0.3l5.7-4.9c-0.8-0.8-1.9-1.2-3.1-1.2H21.3c-1.2,0-2.3,0.5-3.1,1.2l30.1,25.8L52.2,21.6z M69.4,5.4
			c-8.6,0-15.6,7-15.6,15.6s7,15.6,15.6,15.6S85,29.6,85,21S78,5.4,69.4,5.4z M60.6,30.3c-0.3,0.1-0.6-0.2-0.5-0.5l1-4.2l3.8,3.7
			L60.6,30.3z M65.9,28.3l-3.8-3.7l9.5-9.3l3.8,3.7L65.9,28.3z M78.3,16.2L76.4,18l-3.8-3.7l1.6-1.6c0.7-0.6,1.7-0.6,2.4,0l1.7,1.6
			C78.8,14.9,78.8,15.7,78.3,16.2z"/>
	</g>
</g>
</svg>
