

<svg version="1.1"  xmlns="http://www.w3.org/2000/svg" xmlns:xlink="http://www.w3.org/1999/xlink" x="0px" y="0px"
	 width="70px" height="70px" viewBox="0 0 70 70" enable-background="new 0 0 70 70" xml:space="preserve">
<g>
	<path fill="#474747" d="M45,58.2H5.3V5.3H45v9l5.3-5.9v-3c0-3-2.4-5.4-5.4-5.4H5.4C2.4,0,0,2.4,0,5.4v52.8c0,3,2.4,5.4,5.4,5.4
		h39.5c3,0,5.4-2.4,5.4-5.4V40.8L45,46.7V58.2z M45,58.2"/>
	<path fill="#474747" d="M40.5,15c0-1.5-1.2-2.7-2.6-2.7H12.4c-1.5,0-2.7,1.2-2.7,2.7c0,1.5,1.2,2.7,2.7,2.7h25.5
		C39.3,17.7,40.5,16.5,40.5,15L40.5,15z M40.5,15"/>
	<path fill="#474747" d="M36.9,23.4H12.4c-1.5,0-2.7,1.2-2.7,2.6c0,1.5,1.2,2.7,2.7,2.7h19.7L36.9,23.4z M36.9,23.4"/>
	<path fill="#474747" d="M27,34.4H12.4c-1.5,0-2.7,1.2-2.7,2.6c0,1.5,1.2,2.7,2.7,2.7H24L27,34.4z M27,34.4"/>
	<path fill="#474747" d="M9.8,48.2c0,1.5,1.2,2.7,2.7,2.7h8.5c0-0.4,0.1-0.6,0.2-0.9l1.3-4.4h-9.9C10.9,45.5,9.8,46.7,9.8,48.2
		L9.8,48.2z M9.8,48.2"/>
	<path fill="#474747" d="M49.5,15.3L31,35.9l-1.4,1.6l10.2,9.1l1.4-1.6l18.5-20.6l1.7-1.9l-10.2-9.1L49.5,15.3z M48.6,24.6
		L36.5,38.1c-0.2,0.2-0.4,0.3-0.6,0.3c-0.2,0-0.4-0.1-0.6-0.2l-0.6-0.5c-0.4-0.3-0.4-0.9-0.1-1.2l12.1-13.5c0.2-0.2,0.4-0.3,0.6-0.3
		c0.2,0,0.4,0.1,0.6,0.2l0.6,0.5C48.9,23.7,48.9,24.2,48.6,24.6L48.6,24.6z M52.1,18.1l0.6,0.5c0.4,0.3,0.4,0.9,0.1,1.2l-0.2,0.2
		l-0.9,1l0,0c-0.2,0.2-0.4,0.3-0.6,0.3c-0.2,0-0.4-0.1-0.6-0.2l-0.6-0.5c-0.2-0.2-0.3-0.4-0.3-0.6c0-0.2,0.1-0.4,0.2-0.6l1-1.2
		C51.2,17.9,51.8,17.8,52.1,18.1L52.1,18.1z M52.1,18.1"/>
	<path fill="#474747" d="M52.9,11.4l-0.8,0.9l10.2,9.1l2.5-2.8L54.6,9.5L52.9,11.4z M52.9,11.4"/>
	<path fill="#474747" d="M69.9,11.7c0-0.8-0.4-1.5-1-2l-5.8-5.2c-0.6-0.5-1.4-0.8-2.1-0.8c-0.8,0-1.5,0.4-2,1l-3.4,3.8l10.2,9.1
		l3.4-3.8C69.7,13.2,69.9,12.5,69.9,11.7L69.9,11.7z M65.5,13.8l-6.2-5.5l1.8-2l6.2,5.5L65.5,13.8z M65.5,13.8"/>
	<path fill="#474747" d="M25.3,52.5c0.4,0.4,1,0.5,1.5,0.3l11.7-4.8l-10.2-9.1L24.9,51C24.7,51.5,24.9,52.1,25.3,52.5L25.3,52.5z
		 M29.3,42.1l5.9,5.3l-4.6,1.9l-2.7-2.4L29.3,42.1z M29.3,42.1"/>
</g>
</svg>
