

<svg version="1.1"  xmlns="http://www.w3.org/2000/svg" xmlns:xlink="http://www.w3.org/1999/xlink" x="0px" y="0px"
	 width="70px" height="70px" viewBox="0 0 70 70" enable-background="new 0 0 70 70" xml:space="preserve">
<path fill="#474747" d="M62.4,34.9c0-8.7-6.3-15.9-14.5-17.2C47.6,7.9,39.6,0,29.8,0c-10,0-18.1,8.1-18.1,18.1v22.5
	c0,4-3.3,7.3-7.3,7.3H3.6c-2,0-3.6,1.6-3.6,3.6c0,2,1.6,3.6,3.6,3.6h0.7c8,0,14.5-6.5,14.5-14.5V18.1c0-6,4.9-10.9,10.9-10.9
	c5.9,0,10.8,4.8,10.9,10.7c-7.5,1.9-13.1,8.8-13.1,16.9v17.3c0,9.7,7.8,17.5,17.4,17.5c9.6,0,17.4-7.8,17.4-17.5V34.9z M47.9,27.6
	v8.7c0,1.6-1.3,2.9-2.9,2.9s-2.9-1.3-2.9-2.9v-8.7c0-1.6,1.3-2.9,2.9-2.9S47.9,26,47.9,27.6z"/>
</svg>
