

<svg version="1.1"  xmlns="http://www.w3.org/2000/svg" xmlns:xlink="http://www.w3.org/1999/xlink" x="0px" y="0px"
	 width="70px" height="70px" viewBox="0 0 70 70" enable-background="new 0 0 70 70" xml:space="preserve">
<g>
	<g>
		<path fill-rule="evenodd" clip-rule="evenodd" fill="#474747" d="M35,0C15.7,0,0,15.7,0,35c0,19.3,15.7,35,35,35
			c19.3,0,35-15.7,35-35C70,15.7,54.3,0,35,0z M46.7,16.9c2.4,0,4.4,2.6,4.4,5.8s-2,5.8-4.4,5.8c-2.4,0-4.4-2.6-4.4-5.8
			S44.2,16.9,46.7,16.9z M23.1,17c2.4,0,4.4,2.6,4.4,5.8s-2,5.8-4.4,5.8c-2.4,0-4.4-2.6-4.4-5.8S20.7,17,23.1,17z M52.3,49.3H17.5
			v-5.2h34.8V49.3z"/>
	</g>
</g>
</svg>
