

<svg version="1.1"  xmlns="http://www.w3.org/2000/svg" xmlns:xlink="http://www.w3.org/1999/xlink" x="0px" y="0px"
	 width="70px" height="70px" viewBox="0 0 70 70" enable-background="new 0 0 70 70" xml:space="preserve">
<g>
	<g>
		<path fill="#474747" d="M48,28.1h-3.5v-8.5C44.5,8.8,35.8,0,25,0C14.2,0,5.5,8.8,5.5,19.5v8.5H2c-1.1,0-2,0.9-2,2v37.9
			c0,1.1,0.9,2,2,2H48c1.1,0,2-0.9,2-2V30.1C50,29,49.1,28.1,48,28.1L48,28.1z M35.2,28.1H14.8v-8.5c0-5.6,4.6-10.2,10.2-10.2
			c5.6,0,10.2,4.6,10.2,10.2V28.1z M35.2,28.1"/>
	</g>
</g>
<rect y="37.2" fill="#FFFFFF" width="50" height="7.8"/>
<rect y="53.2" fill="#FFFFFF" width="50" height="7.8"/>
</svg>
