

<svg version="1.1"  xmlns="http://www.w3.org/2000/svg" xmlns:xlink="http://www.w3.org/1999/xlink" x="0px" y="0px"
	 width="70px" height="70px" viewBox="-364 606 70 70" enable-background="new -364 606 70 70" xml:space="preserve">
<g>
	<path fill="#474747" d="M-329,606c-19.4,0-35,15.6-35,35s15.6,35,35,35s35-15.6,35-35C-294.1,621.6-309.8,606-329,606L-329,606z
		 M-329,673.3c-18,0-32.4-14.5-32.4-32.2c0-17.8,14.4-32.4,32.4-32.4c17.8,0,32.4,14.4,32.4,32.4
		C-296.8,658.8-311.2,673.3-329,673.3L-329,673.3z"/>
</g>
<g>
	<g>
		<path fill="#474747" d="M-320.5,621.3h-17c-2,0-3.6,1.6-3.6,3.6v31.5c0,2,1.6,3.6,3.6,3.6h17c2,0,3.6-1.6,3.6-3.6V625
			C-316.9,623-318.5,621.3-320.5,621.3L-320.5,621.3z M-333.8,623.1h9.7v1.2h-9.7V623.1z M-329,657.7c-1.3,0-2.4-1.1-2.4-2.4
			s1.1-2.4,2.4-2.4s2.4,1.1,2.4,2.4S-327.7,657.7-329,657.7L-329,657.7z M-319.3,650.4h-19.4v-24.2h19.4
			C-319.3,626.2-319.3,650.4-319.3,650.4z"/>
	</g>
</g>
</svg>
