

<svg version="1.1"  xmlns="http://www.w3.org/2000/svg" xmlns:xlink="http://www.w3.org/1999/xlink" x="0px" y="0px"
	 width="70px" height="70px" viewBox="0 0 70 70" enable-background="new 0 0 70 70" xml:space="preserve">
<g>
	<g>
		<path fill="#474747" d="M68.6,18.8L51.2,1.3c-0.9-0.9-2-1.3-3.1-1.3C47,0,45.9,0.4,45,1.3c-0.5,0.5-0.8,1-1,1.5
			c-3.6,7.6-7.6,11.9-12.7,14.4c-5.7,2.8-12.2,4.7-22.6,4.7c-0.6,0-1.1,0.1-1.7,0.3c-1.1,0.4-1.9,1.3-2.4,2.4
			c-0.4,1.1-0.4,2.3,0,3.3c0.2,0.5,0.5,1,0.9,1.4l14.2,14.2L0,69.9l26.4-19.8l14.2,14.2c0.4,0.4,0.9,0.7,1.4,0.9
			c0.5,0.2,1.1,0.3,1.7,0.3s1.1-0.1,1.7-0.3c1.1-0.4,1.9-1.3,2.4-2.4c0.2-0.5,0.3-1.1,0.3-1.7c0-10.5,1.9-17,4.7-22.6
			c2.5-5,6.8-9,14.4-12.7c0.6-0.2,1.1-0.5,1.5-1C70.4,23.3,70.4,20.5,68.6,18.8z M44.9,34.8c-2.6,5.2-4.2,10.5-5,16.5L32.6,44
			L26,37.4L18.7,30c6-0.8,11.4-2.5,16.6-5c5.6-2.8,10.1-7.1,13.9-13.4l9.1,9.2C52.1,24.6,47.7,29.1,44.9,34.8z"/>
	</g>
</g>
</svg>
