

<svg version="1.1"  xmlns="http://www.w3.org/2000/svg" xmlns:xlink="http://www.w3.org/1999/xlink" x="0px" y="0px"
	 width="70px" height="70px" viewBox="0 0 70 70" enable-background="new 0 0 70 70" xml:space="preserve">
<path fill="#CC2127" d="M35,0C15.7,0,0,15.7,0,35c0,19.3,15.7,35,35,35c19.3,0,35-15.7,35-35C70,15.7,54.3,0,35,0z M38.2,45.6
	c-2.6,0-5-1.4-5.9-3c0,0-1.4,5.6-1.7,6.7c-0.5,1.8-1.5,3.7-2.3,5.1c-1.3,1.7-2.7,0.4-2.9-1.1c-0.1-1.7,0-3.7,0.4-5.5
	c0.5-2,3.1-13.3,3.1-13.3s-0.8-1.6-0.8-3.9c0-3.6,2.1-6.3,4.6-6.3C35,24.3,36,26,36,28c0,2.2-1.4,5.6-2.1,8.7
	c-0.6,2.6,1.3,4.7,3.8,4.7c4.5,0,7.6-6,7.6-13c0-5.4-3.5-9.4-10-9.4c-7.3,0-11.8,5.5-11.8,11.7c0,2.1,0.6,3.6,1.6,4.8
	c0.4,0.5,0.5,0.8,0.3,1.4c-0.1,0.5-0.4,1.5-0.5,2c-0.2,0.6-0.7,0.8-1.2,0.6c-3.3-1.4-4.9-5.1-4.9-9.3c0-7,5.7-15.3,17.1-15.3
	c9.1,0,15.2,6.8,15.2,14C51.1,38.4,45.9,45.6,38.2,45.6z"/>
</svg>
