

<svg version="1.1"  xmlns="http://www.w3.org/2000/svg" xmlns:xlink="http://www.w3.org/1999/xlink" x="0px" y="0px"
	 width="70px" height="70px" viewBox="0 0 70 70" enable-background="new 0 0 70 70" xml:space="preserve">
<g>
	<path fill="#474747" d="M43.7,47.4c-1.7-0.3-1.8-5-1.8-5s5.1-5,6.2-11.8c3,0,4.8-7.2,1.8-9.7C50,18.2,53.7,0,35,0
		C16.3,0,20,18.2,20.1,20.9c-3,2.5-1.1,9.7,1.8,9.7c1.1,6.8,6.2,11.8,6.2,11.8s0,4.7-1.8,5C20.8,48.3,0,57.5,0,67.5h70
		C70,57.5,49.2,48.3,43.7,47.4L43.7,47.4z M43.7,47.4"/>
</g>
</svg>
