

<svg version="1.1"  xmlns="http://www.w3.org/2000/svg" xmlns:xlink="http://www.w3.org/1999/xlink" x="0px" y="0px"
	 width="70px" height="70px" viewBox="0 0 70 70" enable-background="new 0 0 70 70" xml:space="preserve">
<g>
	<g>
		<g>
			<defs>
				<rect id="SVGID_1_" width="70" height="72.3"/>
			</defs>
			<clipPath id="SVGID_2_">
				<use xlink:href="#SVGID_1_"  overflow="visible"/>
			</clipPath>
			<path clip-path="url(#SVGID_2_)" fill="#474747" d="M27.7,24c-4.3-2.5-8.6-5-12.9-7.6c2.3-4.6,5.1-9.2,9.6-13.8
				c0.6-0.6,1.3-1,2.2-1.2h1h0.7c2.3,0.4,4.4,3.4,5.6,5.2c0.9,1.6,1.7,3.1,2.6,4.7L27.7,24z M35.1,5.9c2.1,3.6,4,7.4,5.7,11.4
				l-6.8,4l19.8,1.9l8.3-18.5l-6.9,4.1c-1.9-3.9-4.3-7.2-7.9-8.8c-6.5,0-13,0.1-19.5,0.1C30.4,0,32.8,2.4,35.1,5.9L35.1,5.9z
				 M50.2,32.3L50.2,32.3l0.1,0.2l5.1,11.1c2.1,0.1,4.1,0.1,6.2,0.1c2.1-0.2,6.1-0.7,7.3-2.8c0.1-0.1,0.1-0.1,0.1-0.2l0.5-0.9
				c0-0.4-0.1-0.8-0.2-1.2c-1.7-6.3-4.2-11.1-7-15.4c-4.3,2.6-8.5,5.2-12.8,7.8L50.2,32.3z M61.6,45c-4.1,0.1-8.3,0-12.5-0.5
				L49,36.4L37.7,53.1l11.7,16.5l-0.1-8.1c4.2,0.2,8.2-0.3,11.4-2.7c3.2-5.8,6.3-11.7,9.5-17.5C68.9,43.7,65.7,44.6,61.6,45L61.6,45
				z M20.2,46.2c-0.9,1.7-1.7,3.5-2.5,5.3c-0.8,2.1-2,5.9-0.7,8c0,0.1,0.1,0.1,0.1,0.2l0.6,0.9c0.5,0.4,1.1,0.6,1.7,0.7
				c6.3,1.2,11.6,0.9,16.5,0.2c-0.4-5-0.9-10.1-1.4-15.1L20.2,46.2z M16.5,51c1.7-3.8,3.6-7.6,5.8-11.3l7.2,3.4l-9.8-17.7L0,29
				l7.2,3.4c-2,3.8-3.3,7.7-2.5,11.7C8.5,49.6,12.2,55,16,60.4C14.4,58.3,15,54.9,16.5,51L16.5,51z"/>
		</g>
	</g>
</g>
</svg>
