<?xml version="1.0" encoding="utf-8"?>
<!-- Generator: Adobe Illustrator 18.1.0, SVG Export Plug-In . SVG Version: 6.00 Build 0)  -->
<svg version="1.1"  xmlns="http://www.w3.org/2000/svg" xmlns:xlink="http://www.w3.org/1999/xlink" x="0px" y="0px"
	 viewBox="15 -14 70 70" enable-background="new 15 -14 70 70" xml:space="preserve">
<g>
	<g>
		<path fill="#FFFFFF" d="M81.9,10.9c-0.4-0.2-1-0.1-1.3,0.3l-9.3,9.3C71.1,20.7,71,21,71,21.3V31c0,1-0.9,1.9-1.9,1.9H31.2v-8.6
			c0-0.5-0.3-0.9-0.7-1.1c-0.4-0.2-1-0.1-1.3,0.3L15.3,37.3c-0.5,0.5-0.5,1.2,0,1.7l13.8,13.9c0.2,0.2,0.5,0.3,0.8,0.3
			c0.1,0,0.3,0,0.4-0.1c0.4-0.2,0.7-0.6,0.7-1.1v-7.5h40c7.5,0,11.5-4,11.5-11.5V12C82.6,11.5,82.3,11,81.9,10.9z M84.4,0.2
			L70.6-13.7c-0.3-0.3-0.8-0.4-1.3-0.3c-0.4,0.2-0.7,0.6-0.7,1.1v7.6h-40c-7.5,0-11.5,4-11.5,11.5v21c0,0.5,0.3,0.9,0.7,1.1
			c0.1,0.1,0.3,0.1,0.5,0.1c0.3,0,0.6-0.1,0.8-0.4l9.3-9.3c0.2-0.2,0.4-0.5,0.4-0.8V8.2c0-1,0.8-1.9,1.9-1.9h37.9v8.6
			c0,0.5,0.3,0.9,0.7,1.1c0.4,0.2,1,0.1,1.3-0.3L84.4,1.8C84.9,1.4,84.9,0.7,84.4,0.2z"/>
	</g>
</g>
</svg>
