<svg version="1.1"  xmlns="http://www.w3.org/2000/svg" xmlns:xlink="http://www.w3.org/1999/xlink" x="0px" y="0px"
	 width="500px" height="500px" viewBox="0 0 500 500" style="enable-background:new 0 0 500 500;" xml:space="preserve">
<g>
  <g>
    <path d="M319.1,294.9H189.4c-6.6,0-12,5.4-12,12c0,6.6,5.4,12,12,12h129.7c6.6,0,12-5.4,12-12
			C331.1,300.3,325.8,294.9,319.1,294.9z M225.9,113.1C225.9,50.7,175.3,0,113,0C50.7,0,0,50.7,0,113.1c0,62.3,50.7,113.1,113,113.1
			C175.3,226.1,225.9,175.4,225.9,113.1z M23.9,113.1c0-49.1,39.9-89.1,89-89.1c49.1,0,89,40,89,89.1c0,49.1-39.9,89.1-89,89.1
			C63.9,202.2,23.9,162.2,23.9,113.1z M360.4,78.9H236.7c3.4,11.4,5.2,23.5,5.2,36h118.5c6.6,0,12,5.4,12,12v323.6
			c0,6.6-5.4,12-12,12H141.9c-6.6,0-12-5.4-12-12V241c-4.9,0.6-9.9,1-15,1c-7.2,0-14.1-0.7-21-1.9v210.4c0,26.4,21.5,47.9,47.9,47.9
			h218.5c26.4,0,47.9-21.5,47.9-47.9V126.8C408.3,100.4,386.9,78.9,360.4,78.9z M189.4,370.6c-6.6,0-12,5.4-12,12
			c0,6.6,5.4,12,12,12h129.7c6.6,0,12-5.4,12-12c0-6.6-5.4-12-12-12H189.4z M318.9,222.2H189.2c-6.6,0-12,5.4-12,12
			c0,6.6,5.4,12,12,12h129.7c6.6,0,12-5.4,12-12C330.9,227.6,325.5,222.2,318.9,222.2z M138.3,123c5.2,1.6,9.9,3.7,14.3,6.5
			c5.1,3.2,9.6,7.8,12.9,13.3c2.6,4.4,4.5,9.6,5.6,15.9c0.4,2,2.1,3.4,4.2,3.4c0,0,0.1,0,0.1,0c2.1,0,3.9-1.6,4.1-3.6
			c0.3-2.1,0.6-4.5,0.7-7c0.5-14.5-5.2-29.2-15.6-40.2c-3.8-4.1-8-7.7-12.5-10.9c-6.2-4.5-12.8-8.2-19.5-11.1
			c-7.7-3.3-14.3-5.7-20.8-7.6c-2-0.6-3.6-1-5.2-1.5c0,0-0.1,0-0.2,0l0-15.9c0-1.5-0.8-2.9-2.1-3.6c-1.3-0.7-3-0.7-4.3,0L38.1,96
			c-1.3,0.8-2.1,2.1-2.1,3.6c0,1.5,0.8,2.9,2.2,3.6l62,34.5c1.3,0.7,2.9,0.7,4.3,0c1.3-0.7,2.1-2.1,2.1-3.6l0-15c0.3,0,0.6,0,0.7,0
			c4.1,0,7.4,0.1,10.5,0.3C125.5,119.9,132.2,121.1,138.3,123z"/>
  </g>
</g>
</svg> 