

<svg version="1.1"  xmlns="http://www.w3.org/2000/svg" xmlns:xlink="http://www.w3.org/1999/xlink" x="0px" y="0px"
	 width="70px" height="70px" viewBox="0 0 70 70" enable-background="new 0 0 70 70" xml:space="preserve">
<g>
	<path fill="#474747" d="M17,28.2L5.5,40.1v20.1c0,0.6,0.5,1,1,1h14c0.6,0,1-0.5,1-1V29.4l-3.2-1.2C18.3,28.2,17,28.2,17,28.2z"/>
	<path fill="#474747" d="M45.4,37.5h-14c-0.6,0-1,0.5-1,1v21.7c0,0.6,0.5,1,1,1h14c0.6,0,1-0.5,1-1V38.6C46.4,38,46,37.5,45.4,37.5
		L45.4,37.5z"/>
	<g>
		<path fill="#474747" d="M69.8,15.9c-0.5,0.3-1.1,0.4-1.7,0.4c-0.9,0-1.7-0.3-2.4-0.9l-2.5-2.1l-9.2,10v36.9c0,0.6,0.5,1,1,1h14
			c0.6,0,1-0.5,1-1V15.8C69.9,15.9,69.9,15.9,69.8,15.9L69.8,15.9z"/>
		<path fill="#474747" d="M39.7,32.8c0.8,0.3,1.7,0.1,2.2-0.5l21.2-23l5,4.1c0.2,0.2,0.6,0.2,0.9,0.1c0.3-0.1,0.4-0.4,0.4-0.8
			l-1.1-12c0-0.4-0.4-0.7-0.8-0.7l-12,1.1c-0.3,0-0.6,0.2-0.7,0.5c0,0.1,0,0.2,0,0.3c0,0.2,0.1,0.4,0.3,0.5l5,4.1L39.8,28.4l-23-8.4
			c-0.8-0.3-1.6-0.1-2.2,0.5l-14,14.6c-0.8,0.8-0.8,2.1,0.1,2.9c0.4,0.4,0.9,0.6,1.4,0.6s1.1-0.2,1.5-0.6l13.1-13.6L39.7,32.8z"/>
	</g>
</g>
<rect y="63.8" fill="#474747" width="70" height="3.9"/>
<g>
	<g>
		<g>
			<defs>
				<rect id="SVGID_1_" x="32" y="3" width="10.9" height="20.3"/>
			</defs>
			<clipPath id="SVGID_2_">
				<use xlink:href="#SVGID_1_"  overflow="visible"/>
			</clipPath>
			<path clip-path="url(#SVGID_2_)" fill="#474747" d="M38.7,11.5c-2.1-0.8-3-1.3-3-2.1c0-0.7,0.5-1.4,2.1-1.4c1,0,1.9,0.2,2.5,0.4
				c0.3,0.1,0.6,0.1,0.8-0.1c0.3-0.1,0.4-0.4,0.5-0.7l0.2-0.7c0.1-0.5-0.2-1.1-0.7-1.3c-0.7-0.2-1.5-0.4-2.7-0.4V3.6
				C38.6,3.3,38.4,3,38,3h-1.3c-0.3,0-0.6,0.3-0.6,0.6v1.8C33.6,5.9,32,7.6,32,9.8c0,2.4,1.8,3.6,4.5,4.5c1.8,0.6,2.6,1.2,2.6,2.1
				c0,1-1,1.5-2.4,1.5c-1.1,0-2.1-0.2-3-0.6c-0.3-0.1-0.6-0.1-0.9,0c-0.3,0.1-0.5,0.4-0.5,0.7l-0.2,0.8c-0.1,0.5,0.1,1,0.6,1.2
				c0.9,0.4,2.1,0.6,3.3,0.7v1.8c0,0.3,0.3,0.5,0.6,0.5h1.3c0.3,0,0.6-0.2,0.6-0.5v-2c2.9-0.5,4.4-2.4,4.4-4.6
				C42.9,13.9,41.7,12.5,38.7,11.5L38.7,11.5z"/>
		</g>
	</g>
</g>
</svg>
