
<!-- Generator: Adobe Illustrator 15.0.0, SVG Export Plug-In . SVG Version: 6.00 Build 0)  --> 
<!DOCTYPE svg PUBLIC "-//W3C//DTD SVG 1.1//EN" "http://www.w3.org/Graphics/SVG/1.1/DTD/svg11.dtd"> 
<svg version="1.1"  xmlns="http://www.w3.org/2000/svg" xmlns:xlink="http://www.w3.org/1999/xlink" x="0px" y="0px"
	 width="64px" height="64px" viewBox="0 0 64 64" enable-background="new 0 0 64 64" xml:space="preserve">
<path fill="#727272" d="M46.021,38.031c2.377-3.813,3.756-8.323,3.756-13.145C49.777,11.135,38.641,0,24.892,0
	C11.137,0,0.002,11.135,0.002,24.886c0,13.75,11.135,24.887,24.887,24.887c4.837,0,9.329-1.377,13.14-3.756l16.34,16.328
	c2.188,2.205,5.773,2.205,7.977,0c2.205-2.205,2.205-5.789,0-7.992L46.021,38.031z M24.889,42.663
	c-9.815,0-17.778-7.964-17.778-17.776S15.076,7.11,24.889,7.11s17.774,7.964,17.774,17.776
	C42.666,34.703,34.702,42.663,24.889,42.663z"/>
</svg> 