

<svg version="1.1"  xmlns="http://www.w3.org/2000/svg" xmlns:xlink="http://www.w3.org/1999/xlink" x="0px" y="0px"
	 width="70px" height="70px" viewBox="0 0 70 70" enable-background="new 0 0 70 70" xml:space="preserve">
<path fill="#ff3a59" d="M68,58.5L47.5,38c5.5-9.7,4.1-22.3-4.1-30.5c-9.9-9.9-26-9.9-35.9,0c-9.9,9.9-9.9,26,0,35.9
	c8.3,8.3,20.8,9.6,30.5,4.1L58.5,68c2.6,2.6,6.9,2.6,9.5,0C70.6,65.3,70.6,61.1,68,58.5z M38.3,38.3c-7.1,7.1-18.7,7.1-25.8,0
	c-7.1-7.1-7.1-18.7,0-25.8c7.1-7.1,18.7-7.1,25.8,0C45.4,19.6,45.4,31.2,38.3,38.3z"/>
</svg>
