<svg viewBox="0 0 50 50" height="50" width="50" xmlns="http://www.w3.org/2000/svg">
    <path font-family="Bitstream Vera Sans" enable-background="accumulate" overflow="visible" stroke-width="2" fill="#FFFFFF" color="#ffffff" d="M 39.90625 7.96875 A 1.0001 1.0001 0 0 0 39.78125 8 A 1.0001 1.0001 0 0 0 39 9 L 39 38.53125 L 31.8125 31.34375 A 1.0001 1.0001 0 0 0 31.09375 31.03125 A 1.0001 1.0001 0 0 0 30.40625 32.75 L 39.28125 41.65625 L 40 42.34375 L 40.71875 41.65625 L 49.59375 32.75 A 1.0001 1.0001 0 1 0 48.1875 31.34375 L 41 38.53125 L 41 9 A 1.0001 1.0001 0 0 0 39.90625 7.96875 z M 0.8125 8 A 1.001098 1.001098 0 0 0 1 10 L 26 10 A 1 1 0 0 0 26 8 L 1 8 A 0.9910991 0.9910991 0 0 0 0.90625 8 A 1.001098 1.001098 0 0 0 0.8125 8 z M 0.8125 16 A 1.001098 1.001098 0 0 0 1 18 L 19 18 A 1 1 0 0 0 19 16 L 1 16 A 0.98959894 0.98959894 0 0 0 0.90625 16 A 1.001098 1.001098 0 0 0 0.8125 16 z M 0.90625 24 A 1 1 0 0 0 1 26 L 15 26 A 1 1 0 0 0 15 24 L 1 24 A 1 1 0 0 0 0.90625 24 z M 0.8125 32.03125 A 0.98359835 0.98359835 0 0 0 1 33.96875 L 11 33.96875 A 0.98359835 0.98359835 0 1 0 11 32.03125 L 1 32.03125 A 0.98359835 0.98359835 0 0 0 0.8125 32.03125 z M 0.8125 40.03125 A 0.97609761 0.97609761 0 0 0 1 41.96875 L 7 41.96875 A 0.97609761 0.97609761 0 1 0 7 40.03125 L 1 40.03125 A 0.97609761 0.97609761 0 0 0 0.8125 40.03125 z" style="text-indent:0;text-align:start;line-height:normal;text-transform:none;block-progression:tb;-inkscape-font-specification:Bitstream Vera Sans"/>
</svg>