
<!-- Generator: Adobe Illustrator 15.0.0, SVG Export Plug-In . SVG Version: 6.00 Build 0)  --> 
<!DOCTYPE svg PUBLIC "-//W3C//DTD SVG 1.1//EN" "http://www.w3.org/Graphics/SVG/1.1/DTD/svg11.dtd"> 
<svg version="1.1"  xmlns="http://www.w3.org/2000/svg" xmlns:xlink="http://www.w3.org/1999/xlink" x="0px" y="0px"
	 width="64px" height="64px" viewBox="0 0 64 64" enable-background="new 0 0 64 64" xml:space="preserve">
<path  fill="#fff"  d="M58.198,0H1.659C0.743,0,0,0.743,0,1.658v60.686C0,63.259,0.743,64,1.659,64h56.537c0.916,0,1.658-0.741,1.658-1.656V1.659
	C59.858,0.743,59.112,0,58.198,0z M53.222,56.951H6.635v-6.218h46.587V56.951z M53.222,46.031H6.635v-6.221h46.587V46.031z
	 M53.222,35.111H6.635v-6.221h46.587V35.111z M53.222,24.191H6.635v-6.221h46.587V24.191z M53.222,13.271H6.635V7.051h46.587V13.271
	z"/>
</svg> 