

<svg version="1.1"  xmlns="http://www.w3.org/2000/svg" xmlns:xlink="http://www.w3.org/1999/xlink" x="0px" y="0px"
	 width="70px" height="70px" viewBox="0 0 70 70" enable-background="new 0 0 70 70" xml:space="preserve">
<path fill-rule="evenodd" clip-rule="evenodd" fill="#474747" d="M69.2,10.1L28,51.3c-1,1-2.7,1-3.7,0l-0.8-0.8l0,0l-0.9-0.9
	l-3.9-3.9c0,0,0-0.1-0.1-0.1L0.8,27.7c-1-1-1-2.7,0-3.7l5.6-5.6c1-1,2.7-1,3.7,0l16,16.1L59.8,0.8c1-1,2.7-1,3.7,0l5.6,5.6
	C70.2,7.4,70.2,9.1,69.2,10.1z"/>
</svg>
