
<!-- Generator: Adobe Illustrator 15.0.0, SVG Export Plug-In . SVG Version: 6.00 Build 0)  --> 
<!DOCTYPE svg PUBLIC "-//W3C//DTD SVG 1.1//EN" "http://www.w3.org/Graphics/SVG/1.1/DTD/svg11.dtd"> 
<svg version="1.1"  xmlns="http://www.w3.org/2000/svg" xmlns:xlink="http://www.w3.org/1999/xlink" x="0px" y="0px"
	 width="64px" height="64px" viewBox="0 0 64 64" enable-background="new 0 0 64 64" xml:space="preserve">
<path fill="#ffffff" d="M61.338,37.402V24.001c0-1.84-0.748-3.519-1.963-4.721l-6.743-6.774c-1.148-1.132-2.736-1.841-4.521-1.841
	h-8.107V5.333C40.004,2.386,37.615,0,34.666,0H5.333C2.386,0,0,2.386,0,5.333v33.335c0,2.947,2.386,5.334,5.333,5.334h1.36
	c0,0.006,0,0.01,0,0.014h0.554c0.459-4.389,4.173-7.809,8.683-7.809c4.51,0,8.222,3.42,8.683,7.809h2.039c0-0.004,0-0.01,0-0.014
	h9.375c0.002,0.004,0.002,0.01,0.002,0.014h1.01c0.461-4.389,4.172-7.809,8.683-7.809c4.512,0,8.226,3.42,8.683,7.809h1.568
	c0-0.004,0.004-0.01,0.004-0.014h4.691c1.84,0,3.332-1.492,3.332-3.334C64.004,39.059,62.859,37.709,61.338,37.402z M54.67,28.003
	H40V17.336h7.363c1.303,0,1.998,0.56,2.903,1.465l2.866,2.868c1.003,1.001,1.535,1.628,1.535,2.962v3.372H54.67z"/>
<circle fill="#ffffff" cx="16.041" cy="44.897" r="7.595"/>
<circle fill="#ffffff" cx="45.762" cy="44.897" r="7.595"/>
</svg> 