

<svg version="1.1"  xmlns="http://www.w3.org/2000/svg" xmlns:xlink="http://www.w3.org/1999/xlink" x="0px" y="0px"
	 width="70px" height="70px" viewBox="0 0 70 70" enable-background="new 0 0 70 70" xml:space="preserve">
<g>
	<g>
		<path fill-rule="evenodd" clip-rule="evenodd" fill="#474747" d="M35,0C15.7,0,0,15.7,0,35c0,19.3,15.7,35,35,35
			c19.3,0,35-15.7,35-35C69.9,15.7,54.3,0,35,0z M46.6,16.9c2.4,0,4.4,2.6,4.4,5.8c0,3.2-2,5.8-4.4,5.8c-2.4,0-4.4-2.6-4.4-5.8
			C42.3,19.5,44.2,16.9,46.6,16.9z M23.1,17c2.4,0,4.4,2.6,4.4,5.8c0,3.2-2,5.8-4.4,5.8c-2.4,0-4.4-2.6-4.4-5.8
			C18.7,19.6,20.7,17,23.1,17z M34.6,56.3c-12,0-20-7.8-21.4-20.9H16c2.3,10.1,8.5,15.1,18.6,15.1c10.1,0,16.3-5,18.6-15.1h2.9
			C54.6,48.4,46.6,56.3,34.6,56.3z"/>
	</g>
</g>
</svg>
