<svg version="1.1" id="Capa_1" xmlns="http://www.w3.org/2000/svg" xmlns:xlink="http://www.w3.org/1999/xlink" x="0px" y="0px"
	 viewBox="-256 348.3 97.8 97.8" style="enable-background:new -256 348.3 97.8 97.8;" xml:space="preserve">
  <style type="text/css">.st0{fill:#E62117;}</style>
  <g>
    <g>
      <path class="st0" d="M-216,407.8c7.3-3.8,14.6-7.6,21.9-11.4c-7.4-3.8-14.6-7.6-21.9-11.4C-216,392.6-216,400.2-216,407.8z"/>
      <path class="st0" d="M-207.1,348.3c-27,0-48.9,21.9-48.9,48.9c0,27,21.9,48.9,48.9,48.9s48.9-21.9,48.9-48.9
			S-180.1,348.3-207.1,348.3z M-173.8,413.4c-0.8,3.7-3.8,6.4-7.5,6.8c-8.6,1-17.2,1-25.8,1c-8.6,0-17.3,0-25.8-1
			c-3.6-0.4-6.6-3.1-7.5-6.8c-1.2-5.2-1.2-10.9-1.2-16.3c0-5.4,0-11.1,1.2-16.3c0.8-3.7,3.8-6.4,7.5-6.8c8.6-1,17.2-1,25.8-1
			c8.6,0,17.3,0,25.8,1c3.6,0.4,6.6,3.1,7.5,6.8c1.2,5.2,1.2,10.9,1.2,16.3C-172.6,402.5-172.6,408.2-173.8,413.4z"/>
    </g>
  </g>
</svg>
