
<!-- Generator: Adobe Illustrator 15.0.0, SVG Export Plug-In . SVG Version: 6.00 Build 0)  --> 
<!DOCTYPE svg PUBLIC "-//W3C//DTD SVG 1.1//EN" "http://www.w3.org/Graphics/SVG/1.1/DTD/svg11.dtd"> 
<svg version="1.1"  xmlns="http://www.w3.org/2000/svg" xmlns:xlink="http://www.w3.org/1999/xlink" x="0px" y="0px"
	 width="64px" height="64px" viewBox="0 0 64 64" enable-background="new 0 0 64 64" xml:space="preserve">
<g>
  <path fill="#EE3537" d="M31.719,27.127c0.248,0,0.441-0.066,0.586-0.205c0.145-0.135,0.219-0.328,0.219-0.564v-4.861
		c0-0.195-0.076-0.352-0.221-0.471c-0.148-0.121-0.346-0.182-0.584-0.182c-0.221,0-0.402,0.059-0.543,0.182
		c-0.137,0.121-0.207,0.277-0.207,0.471v4.861c0,0.246,0.064,0.434,0.195,0.564C31.289,27.064,31.477,27.127,31.719,27.127z"/>
  <path fill="#EE3537" d="M35.738,36.102c-0.254,0-0.5,0.061-0.75,0.191c-0.238,0.127-0.469,0.32-0.693,0.563v-3.537h-1.637v10.979
		h1.637v-0.623c0.209,0.25,0.447,0.432,0.693,0.547c0.246,0.121,0.531,0.176,0.848,0.176c0.477,0,0.852-0.148,1.102-0.459
		c0.258-0.305,0.379-0.746,0.379-1.316v-4.496c0-0.66-0.129-1.168-0.406-1.516C36.645,36.273,36.254,36.102,35.738,36.102z
		 M35.648,42.404c0,0.262-0.041,0.447-0.135,0.557c-0.096,0.119-0.238,0.178-0.439,0.178c-0.135,0-0.266-0.033-0.389-0.092
		c-0.127-0.053-0.254-0.154-0.381-0.289v-5.043c0.109-0.113,0.217-0.195,0.332-0.25c0.117-0.049,0.229-0.076,0.344-0.076
		c0.217,0,0.385,0.068,0.504,0.207c0.117,0.137,0.172,0.35,0.172,0.627L35.648,42.404L35.648,42.404z"/>
  <polygon fill="#EE3537" points="20.514,34.916 22.398,34.916 22.398,44.305 24.225,44.305 24.225,34.916 26.109,34.916 
		26.109,33.322 20.514,33.322 	"/>
  <path fill="#EE3537" d="M29.824,42.352c-0.152,0.176-0.318,0.318-0.502,0.438c-0.182,0.119-0.334,0.168-0.453,0.168
		c-0.148,0-0.262-0.041-0.332-0.125c-0.063-0.086-0.1-0.223-0.1-0.414v-6.215h-1.619v6.777c0,0.48,0.096,0.84,0.283,1.082
		c0.191,0.246,0.471,0.363,0.848,0.363c0.303,0,0.619-0.082,0.941-0.258c0.322-0.172,0.633-0.422,0.934-0.75v0.891h1.619v-8.105
		h-1.619V42.352z"/>
  <path fill="#EE3537" d="M31.998,0C14.327,0,0,14.328,0,32c0,17.676,14.327,32,31.998,32C49.676,64,64,49.676,64,32
		C64,14.328,49.676,0,31.998,0z M35.859,19.525h1.82v6.84c0,0.209,0.043,0.363,0.121,0.457c0.07,0.098,0.199,0.145,0.373,0.145
		c0.131,0,0.303-0.063,0.508-0.188c0.209-0.129,0.389-0.287,0.561-0.48v-6.773h1.824v8.922h-1.828v-0.988
		c-0.332,0.363-0.684,0.645-1.045,0.832c-0.365,0.188-0.713,0.289-1.053,0.289c-0.428,0-0.738-0.135-0.955-0.406
		c-0.213-0.262-0.32-0.66-0.32-1.191v-7.457H35.859z M29.094,21.564c0-0.691,0.246-1.242,0.734-1.648
		c0.49-0.41,1.152-0.613,1.98-0.613c0.752,0,1.373,0.215,1.855,0.645c0.477,0.43,0.715,0.992,0.715,1.668v4.609
		c0,0.766-0.23,1.359-0.703,1.797c-0.477,0.434-1.127,0.65-1.957,0.65c-0.797,0-1.438-0.225-1.914-0.676
		c-0.477-0.449-0.717-1.049-0.717-1.807L29.094,21.564L29.094,21.564z M24.125,16.354l1.332,4.836h0.129l1.271-4.836h2.084
		l-2.387,7.076v5.018h-2.051v-4.793l-2.443-7.299L24.125,16.354L24.125,16.354z M48,41.809c0,3.223-2.625,5.848-5.848,5.848H21.846
		c-3.229,0-5.846-2.625-5.846-5.848v-4.703c0-3.227,2.617-5.852,5.846-5.852h20.311c3.223,0,5.844,2.625,5.844,5.852V41.809
		L48,41.809z"/>
  <path fill="#EE3537" d="M40.625,35.998c-0.723,0-1.309,0.217-1.77,0.66s-0.691,1.021-0.691,1.717v3.635
		c0,0.783,0.207,1.395,0.625,1.836c0.414,0.451,0.986,0.668,1.707,0.668c0.809,0,1.414-0.207,1.816-0.625
		c0.41-0.424,0.615-1.047,0.615-1.879v-0.414H41.26v0.369c0,0.477-0.053,0.787-0.16,0.928c-0.107,0.139-0.291,0.209-0.561,0.209
		c-0.26,0-0.443-0.082-0.547-0.246c-0.105-0.168-0.156-0.463-0.156-0.891v-1.523h3.098v-2.066c0-0.77-0.203-1.355-0.598-1.766
		C41.941,36.203,41.367,35.998,40.625,35.998z M41.27,39.184h-1.434v-0.816c0-0.34,0.051-0.586,0.168-0.721
		c0.113-0.152,0.293-0.227,0.551-0.227c0.246,0,0.43,0.074,0.543,0.227c0.113,0.135,0.172,0.381,0.172,0.721V39.184z"/>
</g>
</svg> 